<?xml version="1.0" standalone="no"?>
<!DOCTYPE svg PUBLIC "-//W3C//DTD SVG 1.1//EN"
  "http://www.w3.org/Graphics/SVG/1.1/DTD/svg11.dtd">
<svg xmlns="http://www.w3.org/2000/svg" version="1.1"
     width="872px" height="525px" viewBox="-15 -247 872 545">
  <defs>
    <style type="text/css"><![CDATA[
      .markmap-node {
        cursor: pointer;
      }

      .markmap-node-circle {
        fill: #fff;
        stroke-width: 1.5px;
      }

      .markmap-node-text {
        fill:  #000;
        font: 10px sans-serif;
      }

      .markmap-link {
        fill: none;
      }
    ]]></style>
  </defs>
  <g><path class="markmap-link" stroke="#929292" stroke-width="1" d="M531.6044921875,245.625C561.6044921875,245.625 561.6044921875,208.125 591.6044921875,208.125"></path><path class="markmap-link" stroke="#929292" stroke-width="1" d="M531.6044921875,245.625C561.6044921875,245.625 561.6044921875,233.125 591.6044921875,233.125"></path><path class="markmap-link" stroke="#929292" stroke-width="1" d="M531.6044921875,245.625C561.6044921875,245.625 561.6044921875,258.125 591.6044921875,258.125"></path><path class="markmap-link" stroke="#929292" stroke-width="1" d="M531.6044921875,245.625C561.6044921875,245.625 561.6044921875,283.125 591.6044921875,283.125"></path><path class="markmap-link" stroke="#929292" stroke-width="1" d="M459.5537109375,140.625C489.5537109375,140.625 489.5537109375,103.125 519.5537109375,103.125"></path><path class="markmap-link" stroke="#929292" stroke-width="1" d="M459.5537109375,140.625C489.5537109375,140.625 489.5537109375,128.125 519.5537109375,128.125"></path><path class="markmap-link" stroke="#929292" stroke-width="1" d="M459.5537109375,140.625C489.5537109375,140.625 489.5537109375,153.125 519.5537109375,153.125"></path><path class="markmap-link" stroke="#929292" stroke-width="1" d="M459.5537109375,140.625C489.5537109375,140.625 489.5537109375,178.125 519.5537109375,178.125"></path><path class="markmap-link" stroke="#929292" stroke-width="1" d="M449.5390625,35.625C479.5390625,35.625 479.5390625,-1.875 509.5390625,-1.875"></path><path class="markmap-link" stroke="#929292" stroke-width="1" d="M449.5390625,35.625C479.5390625,35.625 479.5390625,23.125 509.5390625,23.125"></path><path class="markmap-link" stroke="#929292" stroke-width="1" d="M449.5390625,35.625C479.5390625,35.625 479.5390625,48.125 509.5390625,48.125"></path><path class="markmap-link" stroke="#929292" stroke-width="1" d="M449.5390625,35.625C479.5390625,35.625 479.5390625,73.125 509.5390625,73.125"></path><path class="markmap-link" stroke="#929292" stroke-width="1" d="M319.40625,140.625C349.40625,140.625 349.40625,35.625 379.40625,35.625"></path><path class="markmap-link" stroke="#929292" stroke-width="1" d="M319.40625,140.625C349.40625,140.625 349.40625,140.625 379.40625,140.625"></path><path class="markmap-link" stroke="#929292" stroke-width="1" d="M319.40625,140.625C349.40625,140.625 349.40625,245.625 379.40625,245.625"></path><path class="markmap-link" stroke="#929292" stroke-width="1" d="M482.8837890625,-69.375C512.8837890625,-69.375 512.8837890625,-106.875 542.8837890625,-106.875"></path><path class="markmap-link" stroke="#929292" stroke-width="1" d="M482.8837890625,-69.375C512.8837890625,-69.375 512.8837890625,-81.875 542.8837890625,-81.875"></path><path class="markmap-link" stroke="#929292" stroke-width="1" d="M482.8837890625,-69.375C512.8837890625,-69.375 512.8837890625,-56.875 542.8837890625,-56.875"></path><path class="markmap-link" stroke="#929292" stroke-width="1" d="M482.8837890625,-69.375C512.8837890625,-69.375 512.8837890625,-31.875 542.8837890625,-31.875"></path><path class="markmap-link" stroke="#929292" stroke-width="1" d="M460.6572265625,-136.875C490.6572265625,-136.875 490.6572265625,-136.875 520.6572265625,-136.875"></path><path class="markmap-link" stroke="#929292" stroke-width="1" d="M607.4697265625,-196.875C637.4697265625,-196.875 637.4697265625,-209.375 667.4697265625,-209.375"></path><path class="markmap-link" stroke="#929292" stroke-width="1" d="M607.4697265625,-196.875C637.4697265625,-196.875 637.4697265625,-184.375 667.4697265625,-184.375"></path><path class="markmap-link" stroke="#929292" stroke-width="1" d="M450.6474609375,-181.875C480.6474609375,-181.875 480.6474609375,-196.875 510.6474609375,-196.875"></path><path class="markmap-link" stroke="#929292" stroke-width="1" d="M450.6474609375,-181.875C480.6474609375,-181.875 480.6474609375,-166.875 510.6474609375,-166.875"></path><path class="markmap-link" stroke="#929292" stroke-width="1" d="M267.892578125,-140.625C297.892578125,-140.625 297.892578125,-211.875 327.892578125,-211.875"></path><path class="markmap-link" stroke="#929292" stroke-width="1" d="M267.892578125,-140.625C297.892578125,-140.625 297.892578125,-181.875 327.892578125,-181.875"></path><path class="markmap-link" stroke="#929292" stroke-width="1" d="M267.892578125,-140.625C297.892578125,-140.625 297.892578125,-136.875 327.892578125,-136.875"></path><path class="markmap-link" stroke="#929292" stroke-width="1" d="M267.892578125,-140.625C297.892578125,-140.625 297.892578125,-69.375 327.892578125,-69.375"></path><path class="markmap-link" stroke="#929292" stroke-width="1" d="M135.533203125,0C165.533203125,0 165.533203125,-140.625 195.533203125,-140.625"></path><path class="markmap-link" stroke="#929292" stroke-width="1" d="M135.533203125,0C165.533203125,0 165.533203125,140.625 195.533203125,140.625"></path><g class="markmap-node" transform="translate(591.6044921875,283.125)"><rect class="markmap-node-rect" y="-10" x="-1" width="113.8076171875" height="20" fill="#dfdfdf" rx="10" ry="10" stroke="#929292" stroke-width="1"></rect><circle class="markmap-node-circle" cx="111.8076171875" stroke="#929292" r="4.5" style="display: none;"></circle><text class="markmap-node-text" x="10" dy="3" text-anchor="start" style="fill-opacity: 1;">Medium: kiosk, web</text></g><g class="markmap-node" transform="translate(591.6044921875,258.125)"><rect class="markmap-node-rect" y="-10" x="-1" width="126.6103515625" height="20" fill="#dfdfdf" rx="10" ry="10" stroke="#929292" stroke-width="1"></rect><circle class="markmap-node-circle" cx="124.6103515625" stroke="#929292" r="4.5" style="display: none;"></circle><text class="markmap-node-text" x="10" dy="3" text-anchor="start" style="fill-opacity: 1;">Target: mass audience</text></g><g class="markmap-node" transform="translate(591.6044921875,233.125)"><rect class="markmap-node-rect" y="-10" x="-1" width="159.388671875" height="20" fill="#dfdfdf" rx="10" ry="10" stroke="#929292" stroke-width="1"></rect><circle class="markmap-node-circle" cx="157.388671875" stroke="#929292" r="4.5" style="display: none;"></circle><text class="markmap-node-text" x="10" dy="3" text-anchor="start" style="fill-opacity: 1;">Graphics Rendering: real-time</text></g><g class="markmap-node" transform="translate(591.6044921875,208.125)"><rect class="markmap-node-rect" y="-10" x="-1" width="194.96484375" height="20" fill="#dfdfdf" rx="10" ry="10" stroke="#929292" stroke-width="1"></rect><circle class="markmap-node-circle" cx="192.96484375" stroke="#929292" r="4.5" style="display: none;"></circle><text class="markmap-node-text" x="10" dy="3" text-anchor="start" style="fill-opacity: 1;">User Interactions: filter, inspect deta…</text></g><g class="markmap-node" transform="translate(379.40625,245.625)"><rect class="markmap-node-rect" y="-10" x="-1" width="154.1982421875" height="20" fill="#dfdfdf" rx="10" ry="10" stroke="#929292" stroke-width="1"></rect><circle class="markmap-node-circle" cx="152.1982421875" stroke="#929292" r="4.5"></circle><text class="markmap-node-text" x="10" dy="3" text-anchor="start" style="fill-opacity: 1;">Interactive Storytelling (Web)</text></g><g class="markmap-node" transform="translate(519.5537109375,178.125)"><rect class="markmap-node-rect" y="-10" x="-1" width="177.1767578125" height="20" fill="#dfdfdf" rx="10" ry="10" stroke="#929292" stroke-width="1"></rect><circle class="markmap-node-circle" cx="175.1767578125" stroke="#929292" r="4.5" style="display: none;"></circle><text class="markmap-node-text" x="10" dy="3" text-anchor="start" style="fill-opacity: 1;">Medium: slide shows, videos, web</text></g><g class="markmap-node" transform="translate(519.5537109375,153.125)"><rect class="markmap-node-rect" y="-10" x="-1" width="179.9794921875" height="20" fill="#dfdfdf" rx="10" ry="10" stroke="#929292" stroke-width="1"></rect><circle class="markmap-node-circle" cx="177.9794921875" stroke="#929292" r="4.5" style="display: none;"></circle><text class="markmap-node-text" x="10" dy="3" text-anchor="start" style="fill-opacity: 1;">Target: colleagues, mass audience</text></g><g class="markmap-node" transform="translate(519.5537109375,128.125)"><rect class="markmap-node-rect" y="-10" x="-1" width="222.767578125" height="20" fill="#dfdfdf" rx="10" ry="10" stroke="#929292" stroke-width="1"></rect><circle class="markmap-node-circle" cx="220.767578125" stroke="#929292" r="4.5" style="display: none;"></circle><text class="markmap-node-text" x="10" dy="3" text-anchor="start" style="fill-opacity: 1;">Graphics Rendering: precomputed renderi…</text></g><g class="markmap-node" transform="translate(519.5537109375,103.125)"><rect class="markmap-node-rect" y="-10" x="-1" width="139.9501953125" height="20" fill="#dfdfdf" rx="10" ry="10" stroke="#929292" stroke-width="1"></rect><circle class="markmap-node-circle" cx="137.9501953125" stroke="#929292" r="4.5" style="display: none;"></circle><text class="markmap-node-text" x="10" dy="3" text-anchor="start" style="fill-opacity: 1;">User Interactions: nothing</text></g><g class="markmap-node" transform="translate(379.40625,140.625)"><rect class="markmap-node-rect" y="-10" x="-1" width="82.1474609375" height="20" fill="#dfdfdf" rx="10" ry="10" stroke="#929292" stroke-width="1"></rect><circle class="markmap-node-circle" cx="80.1474609375" stroke="#929292" r="4.5"></circle><text class="markmap-node-text" x="10" dy="3" text-anchor="start" style="fill-opacity: 1;">Presentation</text></g><g class="markmap-node" transform="translate(509.5390625,73.125)"><rect class="markmap-node-rect" y="-10" x="-1" width="130.4873046875" height="20" fill="#dfdfdf" rx="10" ry="10" stroke="#929292" stroke-width="1"></rect><circle class="markmap-node-circle" cx="128.4873046875" stroke="#929292" r="4.5" style="display: none;"></circle><text class="markmap-node-text" x="10" dy="3" text-anchor="start" style="fill-opacity: 1;">Medium: Software, web</text></g><g class="markmap-node" transform="translate(509.5390625,48.125)"><rect class="markmap-node-rect" y="-10" x="-1" width="177.7431640625" height="20" fill="#dfdfdf" rx="10" ry="10" stroke="#929292" stroke-width="1"></rect><circle class="markmap-node-circle" cx="175.7431640625" stroke="#929292" r="4.5" style="display: none;"></circle><text class="markmap-node-text" x="10" dy="3" text-anchor="start" style="fill-opacity: 1;">Target: individuals or collaborators</text></g><g class="markmap-node" transform="translate(509.5390625,23.125)"><rect class="markmap-node-rect" y="-10" x="-1" width="159.388671875" height="20" fill="#dfdfdf" rx="10" ry="10" stroke="#929292" stroke-width="1"></rect><circle class="markmap-node-circle" cx="157.388671875" stroke="#929292" r="4.5" style="display: none;"></circle><text class="markmap-node-text" x="10" dy="3" text-anchor="start" style="fill-opacity: 1;">Graphics Rendering: real-time</text></g><g class="markmap-node" transform="translate(509.5390625,-1.875)"><rect class="markmap-node-rect" y="-10" x="-1" width="205.53125" height="20" fill="#dfdfdf" rx="10" ry="10" stroke="#929292" stroke-width="1"></rect><circle class="markmap-node-circle" cx="203.53125" stroke="#929292" r="4.5" style="display: none;"></circle><text class="markmap-node-text" x="10" dy="3" text-anchor="start" style="fill-opacity: 1;">User Interactions: everything including…</text></g><g class="markmap-node" transform="translate(379.40625,35.625)"><rect class="markmap-node-rect" y="-10" x="-1" width="72.1328125" height="20" fill="#dfdfdf" rx="10" ry="10" stroke="#929292" stroke-width="1"></rect><circle class="markmap-node-circle" cx="70.1328125" stroke="#929292" r="4.5"></circle><text class="markmap-node-text" x="10" dy="3" text-anchor="start" style="fill-opacity: 1;">Interactive</text></g><g class="markmap-node" transform="translate(195.533203125,140.625)"><rect class="markmap-node-rect" y="-10" x="-1" width="125.873046875" height="20" fill="#dfdfdf" rx="10" ry="10" stroke="#929292" stroke-width="1"></rect><circle class="markmap-node-circle" cx="123.873046875" stroke="#929292" r="4.5"></circle><text class="markmap-node-text" x="10" dy="3" text-anchor="start" style="fill-opacity: 1;">Modes of Visualization</text></g><g class="markmap-node" transform="translate(542.8837890625,-31.875)"><rect class="markmap-node-rect" y="-10" x="-1" width="201.068359375" height="20" fill="#dfdfdf" rx="10" ry="10" stroke="#929292" stroke-width="1"></rect><circle class="markmap-node-circle" cx="199.068359375" stroke="#929292" r="4.5" style="display: none;"></circle><text class="markmap-node-text" x="10" dy="3" text-anchor="start" style="fill-opacity: 1;">Geographical Information System (GIS)</text></g><g class="markmap-node" transform="translate(542.8837890625,-56.875)"><rect class="markmap-node-rect" y="-10" x="-1" width="137.0009765625" height="20" fill="#dfdfdf" rx="10" ry="10" stroke="#929292" stroke-width="1"></rect><circle class="markmap-node-circle" cx="135.0009765625" stroke="#929292" r="4.5" style="display: none;"></circle><text class="markmap-node-text" x="10" dy="3" text-anchor="start" style="fill-opacity: 1;">Educational Visualization</text></g><g class="markmap-node" transform="translate(542.8837890625,-81.875)"><rect class="markmap-node-rect" y="-10" x="-1" width="119.9453125" height="20" fill="#dfdfdf" rx="10" ry="10" stroke="#929292" stroke-width="1"></rect><circle class="markmap-node-circle" cx="117.9453125" stroke="#929292" r="4.5" style="display: none;"></circle><text class="markmap-node-text" x="10" dy="3" text-anchor="start" style="fill-opacity: 1;">Business Intelligence</text></g><g class="markmap-node" transform="translate(542.8837890625,-106.875)"><rect class="markmap-node-rect" y="-10" x="-1" width="98.8125" height="20" fill="#dfdfdf" rx="10" ry="10" stroke="#929292" stroke-width="1"></rect><circle class="markmap-node-circle" cx="96.8125" stroke="#929292" r="4.5" style="display: none;"></circle><text class="markmap-node-text" x="10" dy="3" text-anchor="start" style="fill-opacity: 1;">Medical Imaging</text></g><g class="markmap-node" transform="translate(327.892578125,-69.375)"><rect class="markmap-node-rect" y="-10" x="-1" width="156.9912109375" height="20" fill="#dfdfdf" rx="10" ry="10" stroke="#929292" stroke-width="1"></rect><circle class="markmap-node-circle" cx="154.9912109375" stroke="#929292" r="4.5"></circle><text class="markmap-node-text" x="10" dy="3" text-anchor="start" style="fill-opacity: 1;">Domain Specific Visualization</text></g><g class="markmap-node" transform="translate(520.6572265625,-136.875)"><rect class="markmap-node-rect" y="-10" x="-1" width="213.67578125" height="20" fill="#dfdfdf" rx="10" ry="10" stroke="#929292" stroke-width="1"></rect><circle class="markmap-node-circle" cx="211.67578125" stroke="#929292" r="4.5" style="display: none;"></circle><text class="markmap-node-text" x="10" dy="3" text-anchor="start" style="fill-opacity: 1;">Visualization of More Abstract, Non-Coo…</text></g><g class="markmap-node" transform="translate(327.892578125,-136.875)"><rect class="markmap-node-rect" y="-10" x="-1" width="134.7646484375" height="20" fill="#dfdfdf" rx="10" ry="10" stroke="#929292" stroke-width="1"></rect><circle class="markmap-node-circle" cx="132.7646484375" stroke="#929292" r="4.5"></circle><text class="markmap-node-text" x="10" dy="3" text-anchor="start" style="fill-opacity: 1;">Information Visualization</text></g><g class="markmap-node" transform="translate(510.6474609375,-166.875)"><rect class="markmap-node-rect" y="-10" x="-1" width="158.2802734375" height="20" fill="#dfdfdf" rx="10" ry="10" stroke="#929292" stroke-width="1"></rect><circle class="markmap-node-circle" cx="156.2802734375" stroke="#929292" r="4.5" style="display: none;"></circle><text class="markmap-node-text" x="10" dy="3" text-anchor="start" style="fill-opacity: 1;">Info for Computer Simulations</text></g><g class="markmap-node" transform="translate(667.4697265625,-184.375)"><rect class="markmap-node-rect" y="-10" x="-1" width="146.60546875" height="20" fill="#dfdfdf" rx="10" ry="10" stroke="#929292" stroke-width="1"></rect><circle class="markmap-node-circle" cx="144.60546875" stroke="#929292" r="4.5" style="display: none;"></circle><text class="markmap-node-text" x="10" dy="3" text-anchor="start" style="fill-opacity: 1;">Temperature, Pressure, etc</text></g><g class="markmap-node" transform="translate(667.4697265625,-209.375)"><rect class="markmap-node-rect" y="-10" x="-1" width="176.64453125" height="20" fill="#dfdfdf" rx="10" ry="10" stroke="#929292" stroke-width="1"></rect><circle class="markmap-node-circle" cx="174.64453125" stroke="#929292" r="4.5" style="display: none;"></circle><text class="markmap-node-text" x="10" dy="3" text-anchor="start" style="fill-opacity: 1;">Spatial and Temperal Coordinates</text></g><g class="markmap-node" transform="translate(510.6474609375,-196.875)"><rect class="markmap-node-rect" y="-10" x="-1" width="98.822265625" height="20" fill="#dfdfdf" rx="10" ry="10" stroke="#929292" stroke-width="1"></rect><circle class="markmap-node-circle" cx="96.822265625" stroke="#929292" r="4.5"></circle><text class="markmap-node-text" x="10" dy="3" text-anchor="start" style="fill-opacity: 1;">Coordinate Data</text></g><g class="markmap-node" transform="translate(327.892578125,-181.875)"><rect class="markmap-node-rect" y="-10" x="-1" width="124.7548828125" height="20" fill="#dfdfdf" rx="10" ry="10" stroke="#929292" stroke-width="1"></rect><circle class="markmap-node-circle" cx="122.7548828125" stroke="#929292" r="4.5"></circle><text class="markmap-node-text" x="10" dy="3" text-anchor="start" style="fill-opacity: 1;">Scientific Visualization</text></g><g class="markmap-node" transform="translate(327.892578125,-211.875)"><rect class="markmap-node-rect" y="-10" x="-1" width="144.2080078125" height="20" fill="#dfdfdf" rx="10" ry="10" stroke="#929292" stroke-width="1"></rect><circle class="markmap-node-circle" cx="142.2080078125" stroke="#929292" r="4.5" style="display: none;"></circle><text class="markmap-node-text" x="10" dy="3" text-anchor="start" style="fill-opacity: 1;">Mathematical Visualization</text></g><g class="markmap-node" transform="translate(195.533203125,-140.625)"><rect class="markmap-node-rect" y="-10" x="-1" width="74.359375" height="20" fill="#dfdfdf" rx="10" ry="10" stroke="#929292" stroke-width="1"></rect><circle class="markmap-node-circle" cx="72.359375" stroke="#929292" r="4.5"></circle><text class="markmap-node-text" x="10" dy="3" text-anchor="start" style="fill-opacity: 1;">Categories</text></g><g class="markmap-node" transform="translate(0,0)"><rect class="markmap-node-rect" y="-10" x="-1" width="137.533203125" height="20" fill="#dfdfdf" rx="10" ry="10" stroke="#929292" stroke-width="1"></rect><circle class="markmap-node-circle" cx="135.533203125" stroke="#929292" r="4.5"></circle><text class="markmap-node-text" x="10" dy="3" text-anchor="start" style="fill-opacity: 1;">Overview of Visualization</text></g></g>
</svg>