<?xml version="1.0" standalone="no"?>
<!DOCTYPE svg PUBLIC "-//W3C//DTD SVG 1.1//EN"
  "http://www.w3.org/Graphics/SVG/1.1/DTD/svg11.dtd">
<svg xmlns="http://www.w3.org/2000/svg" version="1.1"
     width="720px" height="250px" viewBox="-15 -159 720 270">
  <defs>
    <style type="text/css"><![CDATA[
      .markmap-node {
        cursor: pointer;
      }

      .markmap-node-circle {
        fill: #fff;
        stroke-width: 1.5px;
      }

      .markmap-node-text {
        fill:  #000;
        font: 10px sans-serif;
      }

      .markmap-link {
        fill: none;
      }
    ]]></style>
  </defs>
  <g><path class="markmap-link" stroke="#929292" stroke-width="1" d="M453.7724609375,16.25C483.7724609375,16.25 483.7724609375,16.25 513.7724609375,16.25"></path><path class="markmap-link" stroke="#929292" stroke-width="1" d="M220.8271484375,56.25C250.8271484375,56.25 250.8271484375,16.25 280.8271484375,16.25"></path><path class="markmap-link" stroke="#929292" stroke-width="1" d="M220.8271484375,56.25C250.8271484375,56.25 250.8271484375,46.25 280.8271484375,46.25"></path><path class="markmap-link" stroke="#929292" stroke-width="1" d="M220.8271484375,56.25C250.8271484375,56.25 250.8271484375,71.25 280.8271484375,71.25"></path><path class="markmap-link" stroke="#929292" stroke-width="1" d="M220.8271484375,56.25C250.8271484375,56.25 250.8271484375,96.25 280.8271484375,96.25"></path><path class="markmap-link" stroke="#929292" stroke-width="1" d="M349.2802734375,-13.75C379.2802734375,-13.75 379.2802734375,-13.75 409.2802734375,-13.75"></path><path class="markmap-link" stroke="#929292" stroke-width="1" d="M363.1669921875,-43.75C393.1669921875,-43.75 393.1669921875,-43.75 423.1669921875,-43.75"></path><path class="markmap-link" stroke="#929292" stroke-width="1" d="M362.0634765625,-98.75C392.0634765625,-98.75 392.0634765625,-123.75 422.0634765625,-123.75"></path><path class="markmap-link" stroke="#929292" stroke-width="1" d="M362.0634765625,-98.75C392.0634765625,-98.75 392.0634765625,-98.75 422.0634765625,-98.75"></path><path class="markmap-link" stroke="#929292" stroke-width="1" d="M362.0634765625,-98.75C392.0634765625,-98.75 392.0634765625,-73.75 422.0634765625,-73.75"></path><path class="markmap-link" stroke="#929292" stroke-width="1" d="M206.9208984375,-56.25C236.9208984375,-56.25 236.9208984375,-98.75 266.9208984375,-98.75"></path><path class="markmap-link" stroke="#929292" stroke-width="1" d="M206.9208984375,-56.25C236.9208984375,-56.25 236.9208984375,-43.75 266.9208984375,-43.75"></path><path class="markmap-link" stroke="#929292" stroke-width="1" d="M206.9208984375,-56.25C236.9208984375,-56.25 236.9208984375,-13.75 266.9208984375,-13.75"></path><path class="markmap-link" stroke="#929292" stroke-width="1" d="M82.90625,0C112.90625,0 112.90625,-56.25 142.90625,-56.25"></path><path class="markmap-link" stroke="#929292" stroke-width="1" d="M82.90625,0C112.90625,0 112.90625,56.25 142.90625,56.25"></path><g class="markmap-node" transform="translate(280.8271484375,96.25)"><rect class="markmap-node-rect" y="-10" x="-1" width="175.970703125" height="20" fill="#dfdfdf" rx="10" ry="10" stroke="#929292" stroke-width="1"></rect><circle class="markmap-node-circle" cx="173.970703125" stroke="#929292" r="4.5" style="display: none;"></circle><text class="markmap-node-text" x="10" dy="3" text-anchor="start" style="fill-opacity: 1;">Canvas -&gt; Screen Transformation</text></g><g class="markmap-node" transform="translate(280.8271484375,71.25)"><rect class="markmap-node-rect" y="-10" x="-1" width="192.748046875" height="20" fill="#dfdfdf" rx="10" ry="10" stroke="#929292" stroke-width="1"></rect><circle class="markmap-node-circle" cx="190.748046875" stroke="#929292" r="4.5" style="display: none;"></circle><text class="markmap-node-text" x="10" dy="3" text-anchor="start" style="fill-opacity: 1;">Screen Coordinates: for Rasterization</text></g><g class="markmap-node" transform="translate(280.8271484375,46.25)"><rect class="markmap-node-rect" y="-10" x="-1" width="176.6103515625" height="20" fill="#dfdfdf" rx="10" ry="10" stroke="#929292" stroke-width="1"></rect><circle class="markmap-node-circle" cx="174.6103515625" stroke="#929292" r="4.5" style="display: none;"></circle><text class="markmap-node-text" x="10" dy="3" text-anchor="start" style="fill-opacity: 1;">Hierarchical Coordinates Systems</text></g><g class="markmap-node" transform="translate(513.7724609375,16.25)"><rect class="markmap-node-rect" y="-10" x="-1" width="177.748046875" height="20" fill="#dfdfdf" rx="10" ry="10" stroke="#929292" stroke-width="1"></rect><circle class="markmap-node-circle" cx="175.748046875" stroke="#929292" r="4.5" style="display: none;"></circle><text class="markmap-node-text" x="10" dy="3" text-anchor="start" style="fill-opacity: 1;">Define the Coordinates of Corners</text></g><g class="markmap-node" transform="translate(280.8271484375,16.25)"><rect class="markmap-node-rect" y="-10" x="-1" width="174.9453125" height="20" fill="#dfdfdf" rx="10" ry="10" stroke="#929292" stroke-width="1"></rect><circle class="markmap-node-circle" cx="172.9453125" stroke="#929292" r="4.5"></circle><text class="markmap-node-text" x="10" dy="3" text-anchor="start" style="fill-opacity: 1;">Canvas Coordinates: for Primitive</text></g><g class="markmap-node" transform="translate(142.90625,56.25)"><rect class="markmap-node-rect" y="-10" x="-1" width="79.9208984375" height="20" fill="#dfdfdf" rx="10" ry="10" stroke="#929292" stroke-width="1"></rect><circle class="markmap-node-circle" cx="77.9208984375" stroke="#929292" r="4.5"></circle><text class="markmap-node-text" x="10" dy="3" text-anchor="start" style="fill-opacity: 1;">Coordinates</text></g><g class="markmap-node" transform="translate(409.2802734375,-13.75)"><rect class="markmap-node-rect" y="-10" x="-1" width="61.01953125" height="20" fill="#dfdfdf" rx="10" ry="10" stroke="#929292" stroke-width="1"></rect><circle class="markmap-node-circle" cx="59.01953125" stroke="#929292" r="4.5" style="display: none;"></circle><text class="markmap-node-text" x="10" dy="3" text-anchor="start" style="fill-opacity: 1;">Aliasing</text></g><g class="markmap-node" transform="translate(266.9208984375,-13.75)"><rect class="markmap-node-rect" y="-10" x="-1" width="84.359375" height="20" fill="#dfdfdf" rx="10" ry="10" stroke="#929292" stroke-width="1"></rect><circle class="markmap-node-circle" cx="82.359375" stroke="#929292" r="4.5"></circle><text class="markmap-node-text" x="10" dy="3" text-anchor="start" style="fill-opacity: 1;">Rasterization</text></g><g class="markmap-node" transform="translate(423.1669921875,-43.75)"><rect class="markmap-node-rect" y="-10" x="-1" width="52.6748046875" height="20" fill="#dfdfdf" rx="10" ry="10" stroke="#929292" stroke-width="1"></rect><circle class="markmap-node-circle" cx="50.6748046875" stroke="#929292" r="4.5" style="display: none;"></circle><text class="markmap-node-text" x="10" dy="3" text-anchor="start" style="fill-opacity: 1;">Pixels</text></g><g class="markmap-node" transform="translate(266.9208984375,-43.75)"><rect class="markmap-node-rect" y="-10" x="-1" width="98.24609375" height="20" fill="#dfdfdf" rx="10" ry="10" stroke="#929292" stroke-width="1"></rect><circle class="markmap-node-circle" cx="96.24609375" stroke="#929292" r="4.5"></circle><text class="markmap-node-text" x="10" dy="3" text-anchor="start" style="fill-opacity: 1;">Raster Graphics</text></g><g class="markmap-node" transform="translate(422.0634765625,-73.75)"><rect class="markmap-node-rect" y="-10" x="-1" width="43.7734375" height="20" fill="#dfdfdf" rx="10" ry="10" stroke="#929292" stroke-width="1"></rect><circle class="markmap-node-circle" cx="41.7734375" stroke="#929292" r="4.5" style="display: none;"></circle><text class="markmap-node-text" x="10" dy="3" text-anchor="start" style="fill-opacity: 1;">Fills</text></g><g class="markmap-node" transform="translate(422.0634765625,-98.75)"><rect class="markmap-node-rect" y="-10" x="-1" width="59.9013671875" height="20" fill="#dfdfdf" rx="10" ry="10" stroke="#929292" stroke-width="1"></rect><circle class="markmap-node-circle" cx="57.9013671875" stroke="#929292" r="4.5" style="display: none;"></circle><text class="markmap-node-text" x="10" dy="3" text-anchor="start" style="fill-opacity: 1;">Strokes</text></g><g class="markmap-node" transform="translate(422.0634765625,-123.75)"><rect class="markmap-node-rect" y="-10" x="-1" width="61.5712890625" height="20" fill="#dfdfdf" rx="10" ry="10" stroke="#929292" stroke-width="1"></rect><circle class="markmap-node-circle" cx="59.5712890625" stroke="#929292" r="4.5" style="display: none;"></circle><text class="markmap-node-text" x="10" dy="3" text-anchor="start" style="fill-opacity: 1;">Vertices</text></g><g class="markmap-node" transform="translate(266.9208984375,-98.75)"><rect class="markmap-node-rect" y="-10" x="-1" width="97.142578125" height="20" fill="#dfdfdf" rx="10" ry="10" stroke="#929292" stroke-width="1"></rect><circle class="markmap-node-circle" cx="95.142578125" stroke="#929292" r="4.5"></circle><text class="markmap-node-text" x="10" dy="3" text-anchor="start" style="fill-opacity: 1;">Vector Graphics</text></g><g class="markmap-node" transform="translate(142.90625,-56.25)"><rect class="markmap-node-rect" y="-10" x="-1" width="66.0146484375" height="20" fill="#dfdfdf" rx="10" ry="10" stroke="#929292" stroke-width="1"></rect><circle class="markmap-node-circle" cx="64.0146484375" stroke="#929292" r="4.5"></circle><text class="markmap-node-text" x="10" dy="3" text-anchor="start" style="fill-opacity: 1;">Graphics</text></g><g class="markmap-node" transform="translate(0,0)"><rect class="markmap-node-rect" y="-10" x="-1" width="84.90625" height="20" fill="#dfdfdf" rx="10" ry="10" stroke="#929292" stroke-width="1"></rect><circle class="markmap-node-circle" cx="82.90625" stroke="#929292" r="4.5"></circle><text class="markmap-node-text" x="10" dy="3" text-anchor="start" style="fill-opacity: 1;">2-D Graphics</text></g></g>
</svg>