<?xml version="1.0" standalone="no"?>
<!DOCTYPE svg PUBLIC "-//W3C//DTD SVG 1.1//EN"
  "http://www.w3.org/Graphics/SVG/1.1/DTD/svg11.dtd">
<svg xmlns="http://www.w3.org/2000/svg" version="1.1"
     width="906px" height="110px" viewBox="-15 -60 906 130">
  <defs>
    <style type="text/css"><![CDATA[
      .markmap-node {
        cursor: pointer;
      }

      .markmap-node-circle {
        fill: #fff;
        stroke-width: 1.5px;
      }

      .markmap-node-text {
        fill:  #000;
        font: 10px sans-serif;
      }

      .markmap-link {
        fill: none;
      }
    ]]></style>
  </defs>
  <g><path class="markmap-link" stroke="#929292" stroke-width="1" d="M731.8115234375,30C761.8115234375,30 761.8115234375,5 791.8115234375,5"></path><path class="markmap-link" stroke="#929292" stroke-width="1" d="M731.8115234375,30C761.8115234375,30 761.8115234375,30 791.8115234375,30"></path><path class="markmap-link" stroke="#929292" stroke-width="1" d="M731.8115234375,30C761.8115234375,30 761.8115234375,55 791.8115234375,55"></path><path class="markmap-link" stroke="#929292" stroke-width="1" d="M627.240234375,15C657.240234375,15 657.240234375,-25 687.240234375,-25"></path><path class="markmap-link" stroke="#929292" stroke-width="1" d="M627.240234375,15C657.240234375,15 657.240234375,0 687.240234375,0"></path><path class="markmap-link" stroke="#929292" stroke-width="1" d="M627.240234375,15C657.240234375,15 657.240234375,30 687.240234375,30"></path><path class="markmap-link" stroke="#929292" stroke-width="1" d="M627.240234375,15C657.240234375,15 657.240234375,55 687.240234375,55"></path><path class="markmap-link" stroke="#929292" stroke-width="1" d="M482.6640625,0C512.6640625,0 512.6640625,-15 542.6640625,-15"></path><path class="markmap-link" stroke="#929292" stroke-width="1" d="M482.6640625,0C512.6640625,0 512.6640625,15 542.6640625,15"></path><path class="markmap-link" stroke="#929292" stroke-width="1" d="M255.8271484375,0C285.8271484375,0 285.8271484375,0 315.8271484375,0"></path><path class="markmap-link" stroke="#929292" stroke-width="1" d="M79.5712890625,0C109.5712890625,0 109.5712890625,0 139.5712890625,0"></path><g class="markmap-node" transform="translate(687.240234375,55)"><rect class="markmap-node-rect" y="-10" x="-1" width="38.7734375" height="20" fill="#dfdfdf" rx="10" ry="10" stroke="#929292" stroke-width="1"></rect><circle class="markmap-node-circle" cx="36.7734375" stroke="#929292" r="4.5" style="display: none;"></circle><text class="markmap-node-text" x="10" dy="3" text-anchor="start" style="fill-opacity: 1;">Fill</text></g><g class="markmap-node" transform="translate(791.8115234375,55)"><rect class="markmap-node-rect" y="-10" x="-1" width="86.5810546875" height="20" fill="#dfdfdf" rx="10" ry="10" stroke="#929292" stroke-width="1"></rect><circle class="markmap-node-circle" cx="84.5810546875" stroke="#929292" r="4.5" style="display: none;"></circle><text class="markmap-node-text" x="10" dy="3" text-anchor="start" style="fill-opacity: 1;">Z: Close Path</text></g><g class="markmap-node" transform="translate(791.8115234375,30)"><rect class="markmap-node-rect" y="-10" x="-1" width="56.0244140625" height="20" fill="#dfdfdf" rx="10" ry="10" stroke="#929292" stroke-width="1"></rect><circle class="markmap-node-circle" cx="54.0244140625" stroke="#929292" r="4.5" style="display: none;"></circle><text class="markmap-node-text" x="10" dy="3" text-anchor="start" style="fill-opacity: 1;">L: Line</text></g><g class="markmap-node" transform="translate(791.8115234375,5)"><rect class="markmap-node-rect" y="-10" x="-1" width="64.33984375" height="20" fill="#dfdfdf" rx="10" ry="10" stroke="#929292" stroke-width="1"></rect><circle class="markmap-node-circle" cx="62.33984375" stroke="#929292" r="4.5" style="display: none;"></circle><text class="markmap-node-text" x="10" dy="3" text-anchor="start" style="fill-opacity: 1;">M: Move</text></g><g class="markmap-node" transform="translate(687.240234375,30)"><rect class="markmap-node-rect" y="-10" x="-1" width="46.5712890625" height="20" fill="#dfdfdf" rx="10" ry="10" stroke="#929292" stroke-width="1"></rect><circle class="markmap-node-circle" cx="44.5712890625" stroke="#929292" r="4.5"></circle><text class="markmap-node-text" x="10" dy="3" text-anchor="start" style="fill-opacity: 1;">Path</text></g><g class="markmap-node" transform="translate(687.240234375,0)"><rect class="markmap-node-rect" y="-10" x="-1" width="71.029296875" height="20" fill="#dfdfdf" rx="10" ry="10" stroke="#929292" stroke-width="1"></rect><circle class="markmap-node-circle" cx="69.029296875" stroke="#929292" r="4.5" style="display: none;"></circle><text class="markmap-node-text" x="10" dy="3" text-anchor="start" style="fill-opacity: 1;">Rectangle</text></g><g class="markmap-node" transform="translate(687.240234375,-25)"><rect class="markmap-node-rect" y="-10" x="-1" width="51.556640625" height="20" fill="#dfdfdf" rx="10" ry="10" stroke="#929292" stroke-width="1"></rect><circle class="markmap-node-circle" cx="49.556640625" stroke="#929292" r="4.5" style="display: none;"></circle><text class="markmap-node-text" x="10" dy="3" text-anchor="start" style="fill-opacity: 1;">Circle</text></g><g class="markmap-node" transform="translate(542.6640625,15)"><rect class="markmap-node-rect" y="-10" x="-1" width="86.576171875" height="20" fill="#dfdfdf" rx="10" ry="10" stroke="#929292" stroke-width="1"></rect><circle class="markmap-node-circle" cx="84.576171875" stroke="#929292" r="4.5"></circle><text class="markmap-node-text" x="10" dy="3" text-anchor="start" style="fill-opacity: 1;">SVG Drawing</text></g><g class="markmap-node" transform="translate(542.6640625,-15)"><rect class="markmap-node-rect" y="-10" x="-1" width="135.4970703125" height="20" fill="#dfdfdf" rx="10" ry="10" stroke="#929292" stroke-width="1"></rect><circle class="markmap-node-circle" cx="133.4970703125" stroke="#929292" r="4.5" style="display: none;"></circle><text class="markmap-node-text" x="10" dy="3" text-anchor="start" style="fill-opacity: 1;">Origin at Top Left Corner</text></g><g class="markmap-node" transform="translate(315.8271484375,0)"><rect class="markmap-node-rect" y="-10" x="-1" width="168.8369140625" height="20" fill="#dfdfdf" rx="10" ry="10" stroke="#929292" stroke-width="1"></rect><circle class="markmap-node-circle" cx="166.8369140625" stroke="#929292" r="4.5"></circle><text class="markmap-node-text" x="10" dy="3" text-anchor="start" style="fill-opacity: 1;">Scalable Vector Graphics (SVG)</text></g><g class="markmap-node" transform="translate(139.5712890625,0)"><rect class="markmap-node-rect" y="-10" x="-1" width="118.255859375" height="20" fill="#dfdfdf" rx="10" ry="10" stroke="#929292" stroke-width="1"></rect><circle class="markmap-node-circle" cx="116.255859375" stroke="#929292" r="4.5"></circle><text class="markmap-node-text" x="10" dy="3" text-anchor="start" style="fill-opacity: 1;">2-D Drawing Canvas</text></g><g class="markmap-node" transform="translate(0,0)"><rect class="markmap-node-rect" y="-10" x="-1" width="81.5712890625" height="20" fill="#dfdfdf" rx="10" ry="10" stroke="#929292" stroke-width="1"></rect><circle class="markmap-node-circle" cx="79.5712890625" stroke="#929292" r="4.5"></circle><text class="markmap-node-text" x="10" dy="3" text-anchor="start" style="fill-opacity: 1;">2-D Drawing</text></g></g>
</svg>