<?xml version="1.0" standalone="no"?>
<!DOCTYPE svg PUBLIC "-//W3C//DTD SVG 1.1//EN"
  "http://www.w3.org/Graphics/SVG/1.1/DTD/svg11.dtd">
<svg xmlns="http://www.w3.org/2000/svg" version="1.1"
     width="645px" height="190px" viewBox="-15 -115 645 210">
  <defs>
    <style type="text/css"><![CDATA[
      .markmap-node {
        cursor: pointer;
      }

      .markmap-node-circle {
        fill: #fff;
        stroke-width: 1.5px;
      }

      .markmap-node-text {
        fill:  #000;
        font: 10px sans-serif;
      }

      .markmap-link {
        fill: none;
      }
    ]]></style>
  </defs>
  <g><path class="markmap-link" stroke="#929292" stroke-width="1" d="M426.7412109375,35C456.7412109375,35 456.7412109375,10 486.7412109375,10"></path><path class="markmap-link" stroke="#929292" stroke-width="1" d="M426.7412109375,35C456.7412109375,35 456.7412109375,35 486.7412109375,35"></path><path class="markmap-link" stroke="#929292" stroke-width="1" d="M426.7412109375,35C456.7412109375,35 456.7412109375,60 486.7412109375,60"></path><path class="markmap-link" stroke="#929292" stroke-width="1" d="M260.109375,50C290.109375,50 290.109375,35 320.109375,35"></path><path class="markmap-link" stroke="#929292" stroke-width="1" d="M260.109375,50C290.109375,50 290.109375,65 320.109375,65"></path><path class="markmap-link" stroke="#929292" stroke-width="1" d="M82.90625,0C112.90625,0 112.90625,-80 142.90625,-80"></path><path class="markmap-link" stroke="#929292" stroke-width="1" d="M82.90625,0C112.90625,0 112.90625,-55 142.90625,-55"></path><path class="markmap-link" stroke="#929292" stroke-width="1" d="M82.90625,0C112.90625,0 112.90625,-30 142.90625,-30"></path><path class="markmap-link" stroke="#929292" stroke-width="1" d="M82.90625,0C112.90625,0 112.90625,-5 142.90625,-5"></path><path class="markmap-link" stroke="#929292" stroke-width="1" d="M82.90625,0C112.90625,0 112.90625,20 142.90625,20"></path><path class="markmap-link" stroke="#929292" stroke-width="1" d="M82.90625,0C112.90625,0 112.90625,50 142.90625,50"></path><path class="markmap-link" stroke="#929292" stroke-width="1" d="M82.90625,0C112.90625,0 112.90625,80 142.90625,80"></path><g class="markmap-node" transform="translate(142.90625,80)"><rect class="markmap-node-rect" y="-10" x="-1" width="123.2607421875" height="20" fill="#dfdfdf" rx="10" ry="10" stroke="#929292" stroke-width="1"></rect><circle class="markmap-node-circle" cx="121.2607421875" stroke="#929292" r="4.5" style="display: none;"></circle><text class="markmap-node-text" x="10" dy="3" text-anchor="start" style="fill-opacity: 1;">Perspective Distortion</text></g><g class="markmap-node" transform="translate(320.109375,65)"><rect class="markmap-node-rect" y="-10" x="-1" width="116.60546875" height="20" fill="#dfdfdf" rx="10" ry="10" stroke="#929292" stroke-width="1"></rect><circle class="markmap-node-circle" cx="114.60546875" stroke="#929292" r="4.5" style="display: none;"></circle><text class="markmap-node-text" x="10" dy="3" text-anchor="start" style="fill-opacity: 1;">Canvas Coordinates</text></g><g class="markmap-node" transform="translate(486.7412109375,60)"><rect class="markmap-node-rect" y="-10" x="-1" width="81.595703125" height="20" fill="#dfdfdf" rx="10" ry="10" stroke="#929292" stroke-width="1"></rect><circle class="markmap-node-circle" cx="79.595703125" stroke="#929292" r="4.5" style="display: none;"></circle><text class="markmap-node-text" x="10" dy="3" text-anchor="start" style="fill-opacity: 1;">Lookat Point</text></g><g class="markmap-node" transform="translate(486.7412109375,35)"><rect class="markmap-node-rect" y="-10" x="-1" width="68.802734375" height="20" fill="#dfdfdf" rx="10" ry="10" stroke="#929292" stroke-width="1"></rect><circle class="markmap-node-circle" cx="66.802734375" stroke="#929292" r="4.5" style="display: none;"></circle><text class="markmap-node-text" x="10" dy="3" text-anchor="start" style="fill-opacity: 1;">Eye Point</text></g><g class="markmap-node" transform="translate(486.7412109375,10)"><rect class="markmap-node-rect" y="-10" x="-1" width="129.9306640625" height="20" fill="#dfdfdf" rx="10" ry="10" stroke="#929292" stroke-width="1"></rect><circle class="markmap-node-circle" cx="127.9306640625" stroke="#929292" r="4.5" style="display: none;"></circle><text class="markmap-node-text" x="10" dy="3" text-anchor="start" style="fill-opacity: 1;">3-D Coordinate System</text></g><g class="markmap-node" transform="translate(320.109375,35)"><rect class="markmap-node-rect" y="-10" x="-1" width="108.6318359375" height="20" fill="#dfdfdf" rx="10" ry="10" stroke="#929292" stroke-width="1"></rect><circle class="markmap-node-circle" cx="106.6318359375" stroke="#929292" r="4.5"></circle><text class="markmap-node-text" x="10" dy="3" text-anchor="start" style="fill-opacity: 1;">World Coordinates</text></g><g class="markmap-node" transform="translate(142.90625,50)"><rect class="markmap-node-rect" y="-10" x="-1" width="119.203125" height="20" fill="#dfdfdf" rx="10" ry="10" stroke="#929292" stroke-width="1"></rect><circle class="markmap-node-circle" cx="117.203125" stroke="#929292" r="4.5"></circle><text class="markmap-node-text" x="10" dy="3" text-anchor="start" style="fill-opacity: 1;">Viewing a 3-D Scene</text></g><g class="markmap-node" transform="translate(142.90625,20)"><rect class="markmap-node-rect" y="-10" x="-1" width="123.265625" height="20" fill="#dfdfdf" rx="10" ry="10" stroke="#929292" stroke-width="1"></rect><circle class="markmap-node-circle" cx="121.265625" stroke="#929292" r="4.5" style="display: none;"></circle><text class="markmap-node-text" x="10" dy="3" text-anchor="start" style="fill-opacity: 1;">3-D Graphics Pipeline</text></g><g class="markmap-node" transform="translate(142.90625,-5)"><rect class="markmap-node-rect" y="-10" x="-1" width="104.3740234375" height="20" fill="#dfdfdf" rx="10" ry="10" stroke="#929292" stroke-width="1"></rect><circle class="markmap-node-circle" cx="102.3740234375" stroke="#929292" r="4.5" style="display: none;"></circle><text class="markmap-node-text" x="10" dy="3" text-anchor="start" style="fill-opacity: 1;">Raster Rendering</text></g><g class="markmap-node" transform="translate(142.90625,-30)"><rect class="markmap-node-rect" y="-10" x="-1" width="110.47265625" height="20" fill="#dfdfdf" rx="10" ry="10" stroke="#929292" stroke-width="1"></rect><circle class="markmap-node-circle" cx="108.47265625" stroke="#929292" r="4.5" style="display: none;"></circle><text class="markmap-node-text" x="10" dy="3" text-anchor="start" style="fill-opacity: 1;">Pixel Discretization</text></g><g class="markmap-node" transform="translate(142.90625,-55)"><rect class="markmap-node-rect" y="-10" x="-1" width="104.935546875" height="20" fill="#dfdfdf" rx="10" ry="10" stroke="#929292" stroke-width="1"></rect><circle class="markmap-node-circle" cx="102.935546875" stroke="#929292" r="4.5" style="display: none;"></circle><text class="markmap-node-text" x="10" dy="3" text-anchor="start" style="fill-opacity: 1;">Polygonal Models</text></g><g class="markmap-node" transform="translate(142.90625,-80)"><rect class="markmap-node-rect" y="-10" x="-1" width="102.1572265625" height="20" fill="#dfdfdf" rx="10" ry="10" stroke="#929292" stroke-width="1"></rect><circle class="markmap-node-circle" cx="100.1572265625" stroke="#929292" r="4.5" style="display: none;"></circle><text class="markmap-node-text" x="10" dy="3" text-anchor="start" style="fill-opacity: 1;">The Image Plane</text></g><g class="markmap-node" transform="translate(0,0)"><rect class="markmap-node-rect" y="-10" x="-1" width="84.90625" height="20" fill="#dfdfdf" rx="10" ry="10" stroke="#929292" stroke-width="1"></rect><circle class="markmap-node-circle" cx="82.90625" stroke="#929292" r="4.5"></circle><text class="markmap-node-text" x="10" dy="3" text-anchor="start" style="fill-opacity: 1;">3-D Graphics</text></g></g>
</svg>