<?xml version="1.0" standalone="no"?>
<!DOCTYPE svg PUBLIC "-//W3C//DTD SVG 1.1//EN"
  "http://www.w3.org/Graphics/SVG/1.1/DTD/svg11.dtd">
<svg xmlns="http://www.w3.org/2000/svg" version="1.1"
     width="603px" height="207px" viewBox="-15 -117 603 227">
  <defs>
    <style type="text/css"><![CDATA[
      .markmap-node {
        cursor: pointer;
      }

      .markmap-node-circle {
        fill: #fff;
        stroke-width: 1.5px;
      }

      .markmap-node-text {
        fill:  #000;
        font: 10px sans-serif;
      }

      .markmap-link {
        fill: none;
      }
    ]]></style>
  </defs>
  <g><path class="markmap-link" stroke="#929292" stroke-width="1" d="M304.6513671875,70C334.6513671875,70 334.6513671875,45 364.6513671875,45"></path><path class="markmap-link" stroke="#929292" stroke-width="1" d="M304.6513671875,70C334.6513671875,70 334.6513671875,70 364.6513671875,70"></path><path class="markmap-link" stroke="#929292" stroke-width="1" d="M304.6513671875,70C334.6513671875,70 334.6513671875,95 364.6513671875,95"></path><path class="markmap-link" stroke="#929292" stroke-width="1" d="M179.7041015625,42.5C209.7041015625,42.5 209.7041015625,15 239.7041015625,15"></path><path class="markmap-link" stroke="#929292" stroke-width="1" d="M179.7041015625,42.5C209.7041015625,42.5 209.7041015625,70 239.7041015625,70"></path><path class="markmap-link" stroke="#929292" stroke-width="1" d="M394.685546875,-70C424.685546875,-70 424.685546875,-82.5 454.685546875,-82.5"></path><path class="markmap-link" stroke="#929292" stroke-width="1" d="M394.685546875,-70C424.685546875,-70 424.685546875,-57.5 454.685546875,-57.5"></path><path class="markmap-link" stroke="#929292" stroke-width="1" d="M261.76953125,-42.5C291.76953125,-42.5 291.76953125,-70 321.76953125,-70"></path><path class="markmap-link" stroke="#929292" stroke-width="1" d="M261.76953125,-42.5C291.76953125,-42.5 291.76953125,-40 321.76953125,-40"></path><path class="markmap-link" stroke="#929292" stroke-width="1" d="M261.76953125,-42.5C291.76953125,-42.5 291.76953125,-15 321.76953125,-15"></path><path class="markmap-link" stroke="#929292" stroke-width="1" d="M45.123046875,0C75.123046875,0 75.123046875,-42.5 105.123046875,-42.5"></path><path class="markmap-link" stroke="#929292" stroke-width="1" d="M45.123046875,0C75.123046875,0 75.123046875,42.5 105.123046875,42.5"></path><g class="markmap-node" transform="translate(364.6513671875,95)"><rect class="markmap-node-rect" y="-10" x="-1" width="202.9287109375" height="20" fill="#dfdfdf" rx="10" ry="10" stroke="#929292" stroke-width="1"></rect><circle class="markmap-node-circle" cx="200.9287109375" stroke="#929292" r="4.5" style="display: none;"></circle><text class="markmap-node-text" x="10" dy="3" text-anchor="start" style="fill-opacity: 1;">Data Warehouses: Dimension, Measure</text></g><g class="markmap-node" transform="translate(364.6513671875,70)"><rect class="markmap-node-rect" y="-10" x="-1" width="118.646484375" height="20" fill="#dfdfdf" rx="10" ry="10" stroke="#929292" stroke-width="1"></rect><circle class="markmap-node-circle" cx="116.646484375" stroke="#929292" r="4.5" style="display: none;"></circle><text class="markmap-node-text" x="10" dy="3" text-anchor="start" style="fill-opacity: 1;">Database: key, value</text></g><g class="markmap-node" transform="translate(364.6513671875,45)"><rect class="markmap-node-rect" y="-10" x="-1" width="210.033203125" height="20" fill="#dfdfdf" rx="10" ry="10" stroke="#929292" stroke-width="1"></rect><circle class="markmap-node-circle" cx="208.033203125" stroke="#929292" r="4.5" style="display: none;"></circle><text class="markmap-node-text" x="10" dy="3" text-anchor="start" style="fill-opacity: 1;">Science: independent/dependent variable</text></g><g class="markmap-node" transform="translate(239.7041015625,70)"><rect class="markmap-node-rect" y="-10" x="-1" width="66.947265625" height="20" fill="#dfdfdf" rx="10" ry="10" stroke="#929292" stroke-width="1"></rect><circle class="markmap-node-circle" cx="64.947265625" stroke="#929292" r="4.5"></circle><text class="markmap-node-text" x="10" dy="3" text-anchor="start" style="fill-opacity: 1;">Variables</text></g><g class="markmap-node" transform="translate(239.7041015625,15)"><rect class="markmap-node-rect" y="-10" x="-1" width="219.41796875" height="20" fill="#dfdfdf" rx="10" ry="10" stroke="#929292" stroke-width="1"></rect><circle class="markmap-node-circle" cx="217.41796875" stroke="#929292" r="4.5" style="display: none;"></circle><text class="markmap-node-text" x="10" dy="3" text-anchor="start" style="fill-opacity: 1;">Discrete, Continuous vs Ordered, Unorde…</text></g><g class="markmap-node" transform="translate(105.123046875,42.5)"><rect class="markmap-node-rect" y="-10" x="-1" width="76.5810546875" height="20" fill="#dfdfdf" rx="10" ry="10" stroke="#929292" stroke-width="1"></rect><circle class="markmap-node-circle" cx="74.5810546875" stroke="#929292" r="4.5"></circle><text class="markmap-node-text" x="10" dy="3" text-anchor="start" style="fill-opacity: 1;">Data Types</text></g><g class="markmap-node" transform="translate(321.76953125,-15)"><rect class="markmap-node-rect" y="-10" x="-1" width="93.8076171875" height="20" fill="#dfdfdf" rx="10" ry="10" stroke="#929292" stroke-width="1"></rect><circle class="markmap-node-circle" cx="91.8076171875" stroke="#929292" r="4.5" style="display: none;"></circle><text class="markmap-node-text" x="10" dy="3" text-anchor="start" style="fill-opacity: 1;">Graphics Layer</text></g><g class="markmap-node" transform="translate(321.76953125,-40)"><rect class="markmap-node-rect" y="-10" x="-1" width="92.15234375" height="20" fill="#dfdfdf" rx="10" ry="10" stroke="#929292" stroke-width="1"></rect><circle class="markmap-node-circle" cx="90.15234375" stroke="#929292" r="4.5" style="display: none;"></circle><text class="markmap-node-text" x="10" dy="3" text-anchor="start" style="fill-opacity: 1;">Mapping Layer</text></g><g class="markmap-node" transform="translate(454.685546875,-57.5)"><rect class="markmap-node-rect" y="-10" x="-1" width="93.8125" height="20" fill="#dfdfdf" rx="10" ry="10" stroke="#929292" stroke-width="1"></rect><circle class="markmap-node-circle" cx="91.8125" stroke="#929292" r="4.5" style="display: none;"></circle><text class="markmap-node-text" x="10" dy="3" text-anchor="start" style="fill-opacity: 1;">Data Collection</text></g><g class="markmap-node" transform="translate(454.685546875,-82.5)"><rect class="markmap-node-rect" y="-10" x="-1" width="79.916015625" height="20" fill="#dfdfdf" rx="10" ry="10" stroke="#929292" stroke-width="1"></rect><circle class="markmap-node-circle" cx="77.916015625" stroke="#929292" r="4.5" style="display: none;"></circle><text class="markmap-node-text" x="10" dy="3" text-anchor="start" style="fill-opacity: 1;">Data source</text></g><g class="markmap-node" transform="translate(321.76953125,-70)"><rect class="markmap-node-rect" y="-10" x="-1" width="74.916015625" height="20" fill="#dfdfdf" rx="10" ry="10" stroke="#929292" stroke-width="1"></rect><circle class="markmap-node-circle" cx="72.916015625" stroke="#929292" r="4.5"></circle><text class="markmap-node-text" x="10" dy="3" text-anchor="start" style="fill-opacity: 1;">Data Layer</text></g><g class="markmap-node" transform="translate(105.123046875,-42.5)"><rect class="markmap-node-rect" y="-10" x="-1" width="158.646484375" height="20" fill="#dfdfdf" rx="10" ry="10" stroke="#929292" stroke-width="1"></rect><circle class="markmap-node-circle" cx="156.646484375" stroke="#929292" r="4.5"></circle><text class="markmap-node-text" x="10" dy="3" text-anchor="start" style="fill-opacity: 1;">Data Visualization Framework</text></g><g class="markmap-node" transform="translate(0,0)"><rect class="markmap-node-rect" y="-10" x="-1" width="47.123046875" height="20" fill="#dfdfdf" rx="10" ry="10" stroke="#929292" stroke-width="1"></rect><circle class="markmap-node-circle" cx="45.123046875" stroke="#929292" r="4.5"></circle><text class="markmap-node-text" x="10" dy="3" text-anchor="start" style="fill-opacity: 1;">Data</text></g></g>
</svg>