<?xml version="1.0" standalone="no"?>
<!DOCTYPE svg PUBLIC "-//W3C//DTD SVG 1.1//EN"
  "http://www.w3.org/Graphics/SVG/1.1/DTD/svg11.dtd">
<svg xmlns="http://www.w3.org/2000/svg" version="1.1"
     width="419px" height="185px" viewBox="-15 -106 419 205">
  <defs>
    <style type="text/css"><![CDATA[
      .markmap-node {
        cursor: pointer;
      }

      .markmap-node-circle {
        fill: #fff;
        stroke-width: 1.5px;
      }

      .markmap-node-text {
        fill:  #000;
        font: 10px sans-serif;
      }

      .markmap-link {
        fill: none;
      }
    ]]></style>
  </defs>
  <g><path class="markmap-link" stroke="#929292" stroke-width="1" d="M212.4873046875,46.25C242.4873046875,46.25 242.4873046875,8.75 272.4873046875,8.75"></path><path class="markmap-link" stroke="#929292" stroke-width="1" d="M212.4873046875,46.25C242.4873046875,46.25 242.4873046875,33.75 272.4873046875,33.75"></path><path class="markmap-link" stroke="#929292" stroke-width="1" d="M212.4873046875,46.25C242.4873046875,46.25 242.4873046875,58.75 272.4873046875,58.75"></path><path class="markmap-link" stroke="#929292" stroke-width="1" d="M212.4873046875,46.25C242.4873046875,46.25 242.4873046875,83.75 272.4873046875,83.75"></path><path class="markmap-link" stroke="#929292" stroke-width="1" d="M210.265625,-46.25C240.265625,-46.25 240.265625,-71.25 270.265625,-71.25"></path><path class="markmap-link" stroke="#929292" stroke-width="1" d="M210.265625,-46.25C240.265625,-46.25 240.265625,-46.25 270.265625,-46.25"></path><path class="markmap-link" stroke="#929292" stroke-width="1" d="M210.265625,-46.25C240.265625,-46.25 240.265625,-21.25 270.265625,-21.25"></path><path class="markmap-link" stroke="#929292" stroke-width="1" d="M84.5810546875,0C114.5810546875,0 114.5810546875,-46.25 144.5810546875,-46.25"></path><path class="markmap-link" stroke="#929292" stroke-width="1" d="M84.5810546875,0C114.5810546875,0 114.5810546875,46.25 144.5810546875,46.25"></path><g class="markmap-node" transform="translate(272.4873046875,83.75)"><rect class="markmap-node-rect" y="-10" x="-1" width="94.18359375" height="20" fill="#dfdfdf" rx="10" ry="10" stroke="#929292" stroke-width="1"></rect><circle class="markmap-node-circle" cx="92.18359375" stroke="#929292" r="4.5" style="display: none;"></circle><text class="markmap-node-text" x="10" dy="3" text-anchor="start" style="fill-opacity: 1;">Chernoff Faces</text></g><g class="markmap-node" transform="translate(272.4873046875,58.75)"><rect class="markmap-node-rect" y="-10" x="-1" width="118.98828125" height="20" fill="#dfdfdf" rx="10" ry="10" stroke="#929292" stroke-width="1"></rect><circle class="markmap-node-circle" cx="116.98828125" stroke="#929292" r="4.5" style="display: none;"></circle><text class="markmap-node-text" x="10" dy="3" text-anchor="start" style="fill-opacity: 1;">Worlds within Worlds</text></g><g class="markmap-node" transform="translate(272.4873046875,33.75)"><rect class="markmap-node-rect" y="-10" x="-1" width="66.576171875" height="20" fill="#dfdfdf" rx="10" ry="10" stroke="#929292" stroke-width="1"></rect><circle class="markmap-node-circle" cx="64.576171875" stroke="#929292" r="4.5" style="display: none;"></circle><text class="markmap-node-text" x="10" dy="3" text-anchor="start" style="fill-opacity: 1;">Heatmap</text></g><g class="markmap-node" transform="translate(272.4873046875,8.75)"><rect class="markmap-node-rect" y="-10" x="-1" width="71.5615234375" height="20" fill="#dfdfdf" rx="10" ry="10" stroke="#929292" stroke-width="1"></rect><circle class="markmap-node-circle" cx="69.5615234375" stroke="#929292" r="4.5" style="display: none;"></circle><text class="markmap-node-text" x="10" dy="3" text-anchor="start" style="fill-opacity: 1;">Error Bars</text></g><g class="markmap-node" transform="translate(144.5810546875,46.25)"><rect class="markmap-node-rect" y="-10" x="-1" width="69.90625" height="20" fill="#dfdfdf" rx="10" ry="10" stroke="#929292" stroke-width="1"></rect><circle class="markmap-node-circle" cx="67.90625" stroke="#929292" r="4.5"></circle><text class="markmap-node-text" x="10" dy="3" text-anchor="start" style="fill-opacity: 1;">Examples</text></g><g class="markmap-node" transform="translate(270.265625,-21.25)"><rect class="markmap-node-rect" y="-10" x="-1" width="70.4580078125" height="20" fill="#dfdfdf" rx="10" ry="10" stroke="#929292" stroke-width="1"></rect><circle class="markmap-node-circle" cx="68.4580078125" stroke="#929292" r="4.5" style="display: none;"></circle><text class="markmap-node-text" x="10" dy="3" text-anchor="start" style="fill-opacity: 1;">Directions</text></g><g class="markmap-node" transform="translate(270.265625,-46.25)"><rect class="markmap-node-rect" y="-10" x="-1" width="54.896484375" height="20" fill="#dfdfdf" rx="10" ry="10" stroke="#929292" stroke-width="1"></rect><circle class="markmap-node-circle" cx="52.896484375" stroke="#929292" r="4.5" style="display: none;"></circle><text class="markmap-node-text" x="10" dy="3" text-anchor="start" style="fill-opacity: 1;">Colors</text></g><g class="markmap-node" transform="translate(270.265625,-71.25)"><rect class="markmap-node-rect" y="-10" x="-1" width="59.916015625" height="20" fill="#dfdfdf" rx="10" ry="10" stroke="#929292" stroke-width="1"></rect><circle class="markmap-node-circle" cx="57.916015625" stroke="#929292" r="4.5" style="display: none;"></circle><text class="markmap-node-text" x="10" dy="3" text-anchor="start" style="fill-opacity: 1;">Shapes</text></g><g class="markmap-node" transform="translate(144.5810546875,-46.25)"><rect class="markmap-node-rect" y="-10" x="-1" width="67.6845703125" height="20" fill="#dfdfdf" rx="10" ry="10" stroke="#929292" stroke-width="1"></rect><circle class="markmap-node-circle" cx="65.6845703125" stroke="#929292" r="4.5"></circle><text class="markmap-node-text" x="10" dy="3" text-anchor="start" style="fill-opacity: 1;">Elements</text></g><g class="markmap-node" transform="translate(0,0)"><rect class="markmap-node-rect" y="-10" x="-1" width="86.5810546875" height="20" fill="#dfdfdf" rx="10" ry="10" stroke="#929292" stroke-width="1"></rect><circle class="markmap-node-circle" cx="84.5810546875" stroke="#929292" r="4.5"></circle><text class="markmap-node-text" x="10" dy="3" text-anchor="start" style="fill-opacity: 1;">Glyphs Part 1</text></g></g>
</svg>