<?xml version="1.0" standalone="no"?>
<!DOCTYPE svg PUBLIC "-//W3C//DTD SVG 1.1//EN"
  "http://www.w3.org/Graphics/SVG/1.1/DTD/svg11.dtd">
<svg xmlns="http://www.w3.org/2000/svg" version="1.1"
     width="733px" height="273px" viewBox="-15 -182 733 293">
  <defs>
    <style type="text/css"><![CDATA[
      .markmap-node {
        cursor: pointer;
      }

      .markmap-node-circle {
        fill: #fff;
        stroke-width: 1.5px;
      }

      .markmap-node-text {
        fill:  #000;
        font: 10px sans-serif;
      }

      .markmap-link {
        fill: none;
      }
    ]]></style>
  </defs>
  <g><path class="markmap-link" stroke="#929292" stroke-width="1" d="M228.419921875,65.625C258.419921875,65.625 258.419921875,40.625 288.419921875,40.625"></path><path class="markmap-link" stroke="#929292" stroke-width="1" d="M228.419921875,65.625C258.419921875,65.625 258.419921875,65.625 288.419921875,65.625"></path><path class="markmap-link" stroke="#929292" stroke-width="1" d="M228.419921875,65.625C258.419921875,65.625 258.419921875,90.625 288.419921875,90.625"></path><path class="markmap-link" stroke="#929292" stroke-width="1" d="M431.5654296875,10.625C461.5654296875,10.625 461.5654296875,-14.375 491.5654296875,-14.375"></path><path class="markmap-link" stroke="#929292" stroke-width="1" d="M431.5654296875,10.625C461.5654296875,10.625 461.5654296875,10.625 491.5654296875,10.625"></path><path class="markmap-link" stroke="#929292" stroke-width="1" d="M431.5654296875,10.625C461.5654296875,10.625 461.5654296875,35.625 491.5654296875,35.625"></path><path class="markmap-link" stroke="#929292" stroke-width="1" d="M160.802734375,-1.875C190.802734375,-1.875 190.802734375,-14.375 220.802734375,-14.375"></path><path class="markmap-link" stroke="#929292" stroke-width="1" d="M160.802734375,-1.875C190.802734375,-1.875 190.802734375,10.625 220.802734375,10.625"></path><path class="markmap-link" stroke="#929292" stroke-width="1" d="M295.3740234375,-44.375C325.3740234375,-44.375 325.3740234375,-44.375 355.3740234375,-44.375"></path><path class="markmap-link" stroke="#929292" stroke-width="1" d="M303.1669921875,-74.375C333.1669921875,-74.375 333.1669921875,-74.375 363.1669921875,-74.375"></path><path class="markmap-link" stroke="#929292" stroke-width="1" d="M275.92578125,-116.875C305.92578125,-116.875 305.92578125,-129.375 335.92578125,-129.375"></path><path class="markmap-link" stroke="#929292" stroke-width="1" d="M275.92578125,-116.875C305.92578125,-116.875 305.92578125,-104.375 335.92578125,-104.375"></path><path class="markmap-link" stroke="#929292" stroke-width="1" d="M173.5810546875,-95.625C203.5810546875,-95.625 203.5810546875,-146.875 233.5810546875,-146.875"></path><path class="markmap-link" stroke="#929292" stroke-width="1" d="M173.5810546875,-95.625C203.5810546875,-95.625 203.5810546875,-116.875 233.5810546875,-116.875"></path><path class="markmap-link" stroke="#929292" stroke-width="1" d="M173.5810546875,-95.625C203.5810546875,-95.625 203.5810546875,-74.375 233.5810546875,-74.375"></path><path class="markmap-link" stroke="#929292" stroke-width="1" d="M173.5810546875,-95.625C203.5810546875,-95.625 203.5810546875,-44.375 233.5810546875,-44.375"></path><path class="markmap-link" stroke="#929292" stroke-width="1" d="M47.896484375,0C77.896484375,0 77.896484375,-95.625 107.896484375,-95.625"></path><path class="markmap-link" stroke="#929292" stroke-width="1" d="M47.896484375,0C77.896484375,0 77.896484375,-1.875 107.896484375,-1.875"></path><path class="markmap-link" stroke="#929292" stroke-width="1" d="M47.896484375,0C77.896484375,0 77.896484375,65.625 107.896484375,65.625"></path><path class="markmap-link" stroke="#929292" stroke-width="1" d="M47.896484375,0C77.896484375,0 77.896484375,95.625 107.896484375,95.625"></path><g class="markmap-node" transform="translate(107.896484375,95.625)"><rect class="markmap-node-rect" y="-10" x="-1" width="157.728515625" height="20" fill="#dfdfdf" rx="10" ry="10" stroke="#929292" stroke-width="1"></rect><circle class="markmap-node-circle" cx="155.728515625" stroke="#929292" r="4.5" style="display: none;"></circle><text class="markmap-node-text" x="10" dy="3" text-anchor="start" style="fill-opacity: 1;">References: colorbrewer2.org</text></g><g class="markmap-node" transform="translate(288.419921875,90.625)"><rect class="markmap-node-rect" y="-10" x="-1" width="207.1865234375" height="20" fill="#dfdfdf" rx="10" ry="10" stroke="#929292" stroke-width="1"></rect><circle class="markmap-node-circle" cx="205.1865234375" stroke="#929292" r="4.5" style="display: none;"></circle><text class="markmap-node-text" x="10" dy="3" text-anchor="start" style="fill-opacity: 1;">Uniform Brightness: better for 3D not n…</text></g><g class="markmap-node" transform="translate(288.419921875,65.625)"><rect class="markmap-node-rect" y="-10" x="-1" width="94.359375" height="20" fill="#dfdfdf" rx="10" ry="10" stroke="#929292" stroke-width="1"></rect><circle class="markmap-node-circle" cx="92.359375" stroke="#929292" r="4.5" style="display: none;"></circle><text class="markmap-node-text" x="10" dy="3" text-anchor="start" style="fill-opacity: 1;">Light-Dark Map</text></g><g class="markmap-node" transform="translate(288.419921875,40.625)"><rect class="markmap-node-rect" y="-10" x="-1" width="70.47265625" height="20" fill="#dfdfdf" rx="10" ry="10" stroke="#929292" stroke-width="1"></rect><circle class="markmap-node-circle" cx="68.47265625" stroke="#929292" r="4.5" style="display: none;"></circle><text class="markmap-node-text" x="10" dy="3" text-anchor="start" style="fill-opacity: 1;">Rainbow?</text></g><g class="markmap-node" transform="translate(107.896484375,65.625)"><rect class="markmap-node-rect" y="-10" x="-1" width="122.5234375" height="20" fill="#dfdfdf" rx="10" ry="10" stroke="#929292" stroke-width="1"></rect><circle class="markmap-node-circle" cx="120.5234375" stroke="#929292" r="4.5"></circle><text class="markmap-node-text" x="10" dy="3" text-anchor="start" style="fill-opacity: 1;">Colormaps, ParaView</text></g><g class="markmap-node" transform="translate(491.5654296875,35.625)"><rect class="markmap-node-rect" y="-10" x="-1" width="202.19140625" height="20" fill="#dfdfdf" rx="10" ry="10" stroke="#929292" stroke-width="1"></rect><circle class="markmap-node-circle" cx="200.19140625" stroke="#929292" r="4.5" style="display: none;"></circle><text class="markmap-node-text" x="10" dy="3" text-anchor="start" style="fill-opacity: 1;">3D Surface: Do not interfere with light…</text></g><g class="markmap-node" transform="translate(491.5654296875,10.625)"><rect class="markmap-node-rect" y="-10" x="-1" width="152.4599609375" height="20" fill="#dfdfdf" rx="10" ry="10" stroke="#929292" stroke-width="1"></rect><circle class="markmap-node-circle" cx="150.4599609375" stroke="#929292" r="4.5" style="display: none;"></circle><text class="markmap-node-text" x="10" dy="3" text-anchor="start" style="fill-opacity: 1;">Hue &gt; Brightness, saturation</text></g><g class="markmap-node" transform="translate(491.5654296875,-14.375)"><rect class="markmap-node-rect" y="-10" x="-1" width="213.7099609375" height="20" fill="#dfdfdf" rx="10" ry="10" stroke="#929292" stroke-width="1"></rect><circle class="markmap-node-circle" cx="211.7099609375" stroke="#929292" r="4.5" style="display: none;"></circle><text class="markmap-node-text" x="10" dy="3" text-anchor="start" style="fill-opacity: 1;">Avoid brightness and saturation on 3D o…</text></g><g class="markmap-node" transform="translate(220.802734375,10.625)"><rect class="markmap-node-rect" y="-10" x="-1" width="212.7626953125" height="20" fill="#dfdfdf" rx="10" ry="10" stroke="#929292" stroke-width="1"></rect><circle class="markmap-node-circle" cx="210.7626953125" stroke="#929292" r="4.5"></circle><text class="markmap-node-text" x="10" dy="3" text-anchor="start" style="fill-opacity: 1;">Categories = Hue, Brightness &gt; Saturati…</text></g><g class="markmap-node" transform="translate(220.802734375,-14.375)"><rect class="markmap-node-rect" y="-10" x="-1" width="147.26953125" height="20" fill="#dfdfdf" rx="10" ry="10" stroke="#929292" stroke-width="1"></rect><circle class="markmap-node-circle" cx="145.26953125" stroke="#929292" r="4.5" style="display: none;"></circle><text class="markmap-node-text" x="10" dy="3" text-anchor="start" style="fill-opacity: 1;">Density = Value, birghtness</text></g><g class="markmap-node" transform="translate(107.896484375,-1.875)"><rect class="markmap-node-rect" y="-10" x="-1" width="54.90625" height="20" fill="#dfdfdf" rx="10" ry="10" stroke="#929292" stroke-width="1"></rect><circle class="markmap-node-circle" cx="52.90625" stroke="#929292" r="4.5"></circle><text class="markmap-node-text" x="10" dy="3" text-anchor="start" style="fill-opacity: 1;">Usage</text></g><g class="markmap-node" transform="translate(355.3740234375,-44.375)"><rect class="markmap-node-rect" y="-10" x="-1" width="99.388671875" height="20" fill="#dfdfdf" rx="10" ry="10" stroke="#929292" stroke-width="1"></rect><circle class="markmap-node-circle" cx="97.388671875" stroke="#929292" r="4.5" style="display: none;"></circle><text class="markmap-node-text" x="10" dy="3" text-anchor="start" style="fill-opacity: 1;">To gain attention</text></g><g class="markmap-node" transform="translate(233.5810546875,-44.375)"><rect class="markmap-node-rect" y="-10" x="-1" width="63.79296875" height="20" fill="#dfdfdf" rx="10" ry="10" stroke="#929292" stroke-width="1"></rect><circle class="markmap-node-circle" cx="61.79296875" stroke="#929292" r="4.5"></circle><text class="markmap-node-text" x="10" dy="3" text-anchor="start" style="fill-opacity: 1;">Contrast</text></g><g class="markmap-node" transform="translate(363.1669921875,-74.375)"><rect class="markmap-node-rect" y="-10" x="-1" width="182.19140625" height="20" fill="#dfdfdf" rx="10" ry="10" stroke="#929292" stroke-width="1"></rect><circle class="markmap-node-circle" cx="180.19140625" stroke="#929292" r="4.5" style="display: none;"></circle><text class="markmap-node-text" x="10" dy="3" text-anchor="start" style="fill-opacity: 1;">Saturated Border, Desaturated Fills</text></g><g class="markmap-node" transform="translate(233.5810546875,-74.375)"><rect class="markmap-node-rect" y="-10" x="-1" width="71.5859375" height="20" fill="#dfdfdf" rx="10" ry="10" stroke="#929292" stroke-width="1"></rect><circle class="markmap-node-circle" cx="69.5859375" stroke="#929292" r="4.5"></circle><text class="markmap-node-text" x="10" dy="3" text-anchor="start" style="fill-opacity: 1;">Saturation</text></g><g class="markmap-node" transform="translate(335.92578125,-104.375)"><rect class="markmap-node-rect" y="-10" x="-1" width="139.115234375" height="20" fill="#dfdfdf" rx="10" ry="10" stroke="#929292" stroke-width="1"></rect><circle class="markmap-node-circle" cx="137.115234375" stroke="#929292" r="4.5" style="display: none;"></circle><text class="markmap-node-text" x="10" dy="3" text-anchor="start" style="fill-opacity: 1;">6+6 colors recommended</text></g><g class="markmap-node" transform="translate(335.92578125,-129.375)"><rect class="markmap-node-rect" y="-10" x="-1" width="199.2666015625" height="20" fill="#dfdfdf" rx="10" ry="10" stroke="#929292" stroke-width="1"></rect><circle class="markmap-node-circle" cx="197.2666015625" stroke="#929292" r="4.5" style="display: none;"></circle><text class="markmap-node-text" x="10" dy="3" text-anchor="start" style="fill-opacity: 1;">Differentiate between only 5 to 10 hues</text></g><g class="markmap-node" transform="translate(233.5810546875,-116.875)"><rect class="markmap-node-rect" y="-10" x="-1" width="44.3447265625" height="20" fill="#dfdfdf" rx="10" ry="10" stroke="#929292" stroke-width="1"></rect><circle class="markmap-node-circle" cx="42.3447265625" stroke="#929292" r="4.5"></circle><text class="markmap-node-text" x="10" dy="3" text-anchor="start" style="fill-opacity: 1;">Hue</text></g><g class="markmap-node" transform="translate(233.5810546875,-146.875)"><rect class="markmap-node-rect" y="-10" x="-1" width="50.833984375" height="20" fill="#dfdfdf" rx="10" ry="10" stroke="#929292" stroke-width="1"></rect><circle class="markmap-node-circle" cx="48.833984375" stroke="#929292" r="4.5" style="display: none;"></circle><text class="markmap-node-text" x="10" dy="3" text-anchor="start" style="fill-opacity: 1;">Value</text></g><g class="markmap-node" transform="translate(107.896484375,-95.625)"><rect class="markmap-node-rect" y="-10" x="-1" width="67.6845703125" height="20" fill="#dfdfdf" rx="10" ry="10" stroke="#929292" stroke-width="1"></rect><circle class="markmap-node-circle" cx="65.6845703125" stroke="#929292" r="4.5"></circle><text class="markmap-node-text" x="10" dy="3" text-anchor="start" style="fill-opacity: 1;">Elements</text></g><g class="markmap-node" transform="translate(0,0)"><rect class="markmap-node-rect" y="-10" x="-1" width="49.896484375" height="20" fill="#dfdfdf" rx="10" ry="10" stroke="#929292" stroke-width="1"></rect><circle class="markmap-node-circle" cx="47.896484375" stroke="#929292" r="4.5"></circle><text class="markmap-node-text" x="10" dy="3" text-anchor="start" style="fill-opacity: 1;">Color</text></g></g>
</svg>