<?xml version="1.0" standalone="no"?>
<!DOCTYPE svg PUBLIC "-//W3C//DTD SVG 1.1//EN"
  "http://www.w3.org/Graphics/SVG/1.1/DTD/svg11.dtd">
<svg xmlns="http://www.w3.org/2000/svg" version="1.1"
     width="578px" height="513px" viewBox="-15 -289 578 533">
  <defs>
    <style type="text/css"><![CDATA[
      .markmap-node {
        cursor: pointer;
      }

      .markmap-node-circle {
        fill: #fff;
        stroke-width: 1.5px;
      }

      .markmap-node-text {
        fill:  #000;
        font: 10px sans-serif;
      }

      .markmap-link {
        fill: none;
      }
    ]]></style>
  </defs>
  <g><path class="markmap-link" stroke="#929292" stroke-width="1" d="M247.3701171875,198.75C277.3701171875,198.75 277.3701171875,186.25 307.3701171875,186.25"></path><path class="markmap-link" stroke="#929292" stroke-width="1" d="M247.3701171875,198.75C277.3701171875,198.75 277.3701171875,211.25 307.3701171875,211.25"></path><path class="markmap-link" stroke="#929292" stroke-width="1" d="M239.03515625,156.25C269.03515625,156.25 269.03515625,156.25 299.03515625,156.25"></path><path class="markmap-link" stroke="#929292" stroke-width="1" d="M282.39453125,113.75C312.39453125,113.75 312.39453125,101.25 342.39453125,101.25"></path><path class="markmap-link" stroke="#929292" stroke-width="1" d="M282.39453125,113.75C312.39453125,113.75 312.39453125,126.25 342.39453125,126.25"></path><path class="markmap-link" stroke="#929292" stroke-width="1" d="M254.58203125,46.25C284.58203125,46.25 284.58203125,21.25 314.58203125,21.25"></path><path class="markmap-link" stroke="#929292" stroke-width="1" d="M254.58203125,46.25C284.58203125,46.25 284.58203125,46.25 314.58203125,46.25"></path><path class="markmap-link" stroke="#929292" stroke-width="1" d="M254.58203125,46.25C284.58203125,46.25 284.58203125,71.25 314.58203125,71.25"></path><path class="markmap-link" stroke="#929292" stroke-width="1" d="M263.4931640625,-21.25C293.4931640625,-21.25 293.4931640625,-33.75 323.4931640625,-33.75"></path><path class="markmap-link" stroke="#929292" stroke-width="1" d="M263.4931640625,-21.25C293.4931640625,-21.25 293.4931640625,-8.75 323.4931640625,-8.75"></path><path class="markmap-link" stroke="#929292" stroke-width="1" d="M242.375,-76.25C272.375,-76.25 272.375,-88.75 302.375,-88.75"></path><path class="markmap-link" stroke="#929292" stroke-width="1" d="M242.375,-76.25C272.375,-76.25 272.375,-63.75 302.375,-63.75"></path><path class="markmap-link" stroke="#929292" stroke-width="1" d="M247.39453125,-131.25C277.39453125,-131.25 277.39453125,-143.75 307.39453125,-143.75"></path><path class="markmap-link" stroke="#929292" stroke-width="1" d="M247.39453125,-131.25C277.39453125,-131.25 277.39453125,-118.75 307.39453125,-118.75"></path><path class="markmap-link" stroke="#929292" stroke-width="1" d="M285.1923828125,-228.75C315.1923828125,-228.75 315.1923828125,-253.75 345.1923828125,-253.75"></path><path class="markmap-link" stroke="#929292" stroke-width="1" d="M285.1923828125,-228.75C315.1923828125,-228.75 315.1923828125,-228.75 345.1923828125,-228.75"></path><path class="markmap-link" stroke="#929292" stroke-width="1" d="M285.1923828125,-228.75C315.1923828125,-228.75 315.1923828125,-203.75 345.1923828125,-203.75"></path><path class="markmap-link" stroke="#929292" stroke-width="1" d="M115.5771484375,0C145.5771484375,0 145.5771484375,-228.75 175.5771484375,-228.75"></path><path class="markmap-link" stroke="#929292" stroke-width="1" d="M115.5771484375,0C145.5771484375,0 145.5771484375,-173.75 175.5771484375,-173.75"></path><path class="markmap-link" stroke="#929292" stroke-width="1" d="M115.5771484375,0C145.5771484375,0 145.5771484375,-131.25 175.5771484375,-131.25"></path><path class="markmap-link" stroke="#929292" stroke-width="1" d="M115.5771484375,0C145.5771484375,0 145.5771484375,-76.25 175.5771484375,-76.25"></path><path class="markmap-link" stroke="#929292" stroke-width="1" d="M115.5771484375,0C145.5771484375,0 145.5771484375,-21.25 175.5771484375,-21.25"></path><path class="markmap-link" stroke="#929292" stroke-width="1" d="M115.5771484375,0C145.5771484375,0 145.5771484375,46.25 175.5771484375,46.25"></path><path class="markmap-link" stroke="#929292" stroke-width="1" d="M115.5771484375,0C145.5771484375,0 145.5771484375,113.75 175.5771484375,113.75"></path><path class="markmap-link" stroke="#929292" stroke-width="1" d="M115.5771484375,0C145.5771484375,0 145.5771484375,156.25 175.5771484375,156.25"></path><path class="markmap-link" stroke="#929292" stroke-width="1" d="M115.5771484375,0C145.5771484375,0 145.5771484375,198.75 175.5771484375,198.75"></path><path class="markmap-link" stroke="#929292" stroke-width="1" d="M115.5771484375,0C145.5771484375,0 145.5771484375,228.75 175.5771484375,228.75"></path><g class="markmap-node" transform="translate(175.5771484375,228.75)"><rect class="markmap-node-rect" y="-10" x="-1" width="122.142578125" height="20" fill="#dfdfdf" rx="10" ry="10" stroke="#929292" stroke-width="1"></rect><circle class="markmap-node-circle" cx="120.142578125" stroke="#929292" r="4.5" style="display: none;"></circle><text class="markmap-node-text" x="10" dy="3" text-anchor="start" style="fill-opacity: 1;">Color: Choose Wisely</text></g><g class="markmap-node" transform="translate(307.3701171875,211.25)"><rect class="markmap-node-rect" y="-10" x="-1" width="86.0244140625" height="20" fill="#dfdfdf" rx="10" ry="10" stroke="#929292" stroke-width="1"></rect><circle class="markmap-node-circle" cx="84.0244140625" stroke="#929292" r="4.5" style="display: none;"></circle><text class="markmap-node-text" x="10" dy="3" text-anchor="start" style="fill-opacity: 1;">Across space</text></g><g class="markmap-node" transform="translate(307.3701171875,186.25)"><rect class="markmap-node-rect" y="-10" x="-1" width="69.33984375" height="20" fill="#dfdfdf" rx="10" ry="10" stroke="#929292" stroke-width="1"></rect><circle class="markmap-node-circle" cx="67.33984375" stroke="#929292" r="4.5" style="display: none;"></circle><text class="markmap-node-text" x="10" dy="3" text-anchor="start" style="fill-opacity: 1;">Over time</text></g><g class="markmap-node" transform="translate(175.5771484375,198.75)"><rect class="markmap-node-rect" y="-10" x="-1" width="73.79296875" height="20" fill="#dfdfdf" rx="10" ry="10" stroke="#929292" stroke-width="1"></rect><circle class="markmap-node-circle" cx="71.79296875" stroke="#929292" r="4.5"></circle><text class="markmap-node-text" x="10" dy="3" text-anchor="start" style="fill-opacity: 1;">Tell a story</text></g><g class="markmap-node" transform="translate(299.03515625,156.25)"><rect class="markmap-node-rect" y="-10" x="-1" width="185.53125" height="20" fill="#dfdfdf" rx="10" ry="10" stroke="#929292" stroke-width="1"></rect><circle class="markmap-node-circle" cx="183.53125" stroke="#929292" r="4.5" style="display: none;"></circle><text class="markmap-node-text" x="10" dy="3" text-anchor="start" style="fill-opacity: 1;">Consitant design for multiple graphs</text></g><g class="markmap-node" transform="translate(175.5771484375,156.25)"><rect class="markmap-node-rect" y="-10" x="-1" width="65.4580078125" height="20" fill="#dfdfdf" rx="10" ry="10" stroke="#929292" stroke-width="1"></rect><circle class="markmap-node-circle" cx="63.4580078125" stroke="#929292" r="4.5"></circle><text class="markmap-node-text" x="10" dy="3" text-anchor="start" style="fill-opacity: 1;">Multiples</text></g><g class="markmap-node" transform="translate(342.39453125,126.25)"><rect class="markmap-node-rect" y="-10" x="-1" width="122.162109375" height="20" fill="#dfdfdf" rx="10" ry="10" stroke="#929292" stroke-width="1"></rect><circle class="markmap-node-circle" cx="120.162109375" stroke="#929292" r="4.5" style="display: none;"></circle><text class="markmap-node-text" x="10" dy="3" text-anchor="start" style="fill-opacity: 1;">Distinguishable visual</text></g><g class="markmap-node" transform="translate(342.39453125,101.25)"><rect class="markmap-node-rect" y="-10" x="-1" width="206.29296875" height="20" fill="#dfdfdf" rx="10" ry="10" stroke="#929292" stroke-width="1"></rect><circle class="markmap-node-circle" cx="204.29296875" stroke="#929292" r="4.5" style="display: none;"></circle><text class="markmap-node-text" x="10" dy="3" text-anchor="start" style="fill-opacity: 1;">Different elements,  different appearan…</text></g><g class="markmap-node" transform="translate(175.5771484375,113.75)"><rect class="markmap-node-rect" y="-10" x="-1" width="108.8173828125" height="20" fill="#dfdfdf" rx="10" ry="10" stroke="#929292" stroke-width="1"></rect><circle class="markmap-node-circle" cx="106.8173828125" stroke="#929292" r="4.5"></circle><text class="markmap-node-text" x="10" dy="3" text-anchor="start" style="fill-opacity: 1;">Information Layers</text></g><g class="markmap-node" transform="translate(314.58203125,71.25)"><rect class="markmap-node-rect" y="-10" x="-1" width="217.435546875" height="20" fill="#dfdfdf" rx="10" ry="10" stroke="#929292" stroke-width="1"></rect><circle class="markmap-node-circle" cx="215.435546875" stroke="#929292" r="4.5" style="display: none;"></circle><text class="markmap-node-text" x="10" dy="3" text-anchor="start" style="fill-opacity: 1;">Schneiderman's mantra: Overview, detail…</text></g><g class="markmap-node" transform="translate(314.58203125,46.25)"><rect class="markmap-node-rect" y="-10" x="-1" width="70.4677734375" height="20" fill="#dfdfdf" rx="10" ry="10" stroke="#929292" stroke-width="1"></rect><circle class="markmap-node-circle" cx="68.4677734375" stroke="#929292" r="4.5" style="display: none;"></circle><text class="markmap-node-text" x="10" dy="3" text-anchor="start" style="fill-opacity: 1;">Zoomable</text></g><g class="markmap-node" transform="translate(314.58203125,21.25)"><rect class="markmap-node-rect" y="-10" x="-1" width="56.56640625" height="20" fill="#dfdfdf" rx="10" ry="10" stroke="#929292" stroke-width="1"></rect><circle class="markmap-node-circle" cx="54.56640625" stroke="#929292" r="4.5" style="display: none;"></circle><text class="markmap-node-text" x="10" dy="3" text-anchor="start" style="fill-opacity: 1;">Details</text></g><g class="markmap-node" transform="translate(175.5771484375,46.25)"><rect class="markmap-node-rect" y="-10" x="-1" width="81.0048828125" height="20" fill="#dfdfdf" rx="10" ry="10" stroke="#929292" stroke-width="1"></rect><circle class="markmap-node-circle" cx="79.0048828125" stroke="#929292" r="4.5"></circle><text class="markmap-node-text" x="10" dy="3" text-anchor="start" style="fill-opacity: 1;">Micro/Macro</text></g><g class="markmap-node" transform="translate(323.4931640625,-8.75)"><rect class="markmap-node-rect" y="-10" x="-1" width="76" height="20" fill="#dfdfdf" rx="10" ry="10" stroke="#929292" stroke-width="1"></rect><circle class="markmap-node-circle" cx="74" stroke="#929292" r="4.5" style="display: none;"></circle><text class="markmap-node-text" x="10" dy="3" text-anchor="start" style="fill-opacity: 1;">Minimalism</text></g><g class="markmap-node" transform="translate(323.4931640625,-33.75)"><rect class="markmap-node-rect" y="-10" x="-1" width="128.8125" height="20" fill="#dfdfdf" rx="10" ry="10" stroke="#929292" stroke-width="1"></rect><circle class="markmap-node-circle" cx="126.8125" stroke="#929292" r="4.5" style="display: none;"></circle><text class="markmap-node-text" x="10" dy="3" text-anchor="start" style="fill-opacity: 1;">Maximize data-ink ratio</text></g><g class="markmap-node" transform="translate(175.5771484375,-21.25)"><rect class="markmap-node-rect" y="-10" x="-1" width="89.916015625" height="20" fill="#dfdfdf" rx="10" ry="10" stroke="#929292" stroke-width="1"></rect><circle class="markmap-node-circle" cx="87.916015625" stroke="#929292" r="4.5"></circle><text class="markmap-node-text" x="10" dy="3" text-anchor="start" style="fill-opacity: 1;">Data-Ink Ratio</text></g><g class="markmap-node" transform="translate(302.375,-63.75)"><rect class="markmap-node-rect" y="-10" x="-1" width="104.935546875" height="20" fill="#dfdfdf" rx="10" ry="10" stroke="#929292" stroke-width="1"></rect><circle class="markmap-node-circle" cx="102.935546875" stroke="#929292" r="4.5" style="display: none;"></circle><text class="markmap-node-text" x="10" dy="3" text-anchor="start" style="fill-opacity: 1;">2D better than 3D</text></g><g class="markmap-node" transform="translate(302.375,-88.75)"><rect class="markmap-node-rect" y="-10" x="-1" width="160.3359375" height="20" fill="#dfdfdf" rx="10" ry="10" stroke="#929292" stroke-width="1"></rect><circle class="markmap-node-circle" cx="158.3359375" stroke="#929292" r="4.5" style="display: none;"></circle><text class="markmap-node-text" x="10" dy="3" text-anchor="start" style="fill-opacity: 1;">Prettier but keep effectiveness</text></g><g class="markmap-node" transform="translate(175.5771484375,-76.25)"><rect class="markmap-node-rect" y="-10" x="-1" width="68.7978515625" height="20" fill="#dfdfdf" rx="10" ry="10" stroke="#929292" stroke-width="1"></rect><circle class="markmap-node-circle" cx="66.7978515625" stroke="#929292" r="4.5"></circle><text class="markmap-node-text" x="10" dy="3" text-anchor="start" style="fill-opacity: 1;">Chartjunk</text></g><g class="markmap-node" transform="translate(307.39453125,-118.75)"><rect class="markmap-node-rect" y="-10" x="-1" width="166.0830078125" height="20" fill="#dfdfdf" rx="10" ry="10" stroke="#929292" stroke-width="1"></rect><circle class="markmap-node-circle" cx="164.0830078125" stroke="#929292" r="4.5" style="display: none;"></circle><text class="markmap-node-text" x="10" dy="3" text-anchor="start" style="fill-opacity: 1;">Labels distinguishable from plot</text></g><g class="markmap-node" transform="translate(307.39453125,-143.75)"><rect class="markmap-node-rect" y="-10" x="-1" width="48.2314453125" height="20" fill="#dfdfdf" rx="10" ry="10" stroke="#929292" stroke-width="1"></rect><circle class="markmap-node-circle" cx="46.2314453125" stroke="#929292" r="4.5" style="display: none;"></circle><text class="markmap-node-text" x="10" dy="3" text-anchor="start" style="fill-opacity: 1;">Axes</text></g><g class="markmap-node" transform="translate(175.5771484375,-131.25)"><rect class="markmap-node-rect" y="-10" x="-1" width="73.8173828125" height="20" fill="#dfdfdf" rx="10" ry="10" stroke="#929292" stroke-width="1"></rect><circle class="markmap-node-circle" cx="71.8173828125" stroke="#929292" r="4.5"></circle><text class="markmap-node-text" x="10" dy="3" text-anchor="start" style="fill-opacity: 1;">Annotation</text></g><g class="markmap-node" transform="translate(175.5771484375,-173.75)"><rect class="markmap-node-rect" y="-10" x="-1" width="192.923828125" height="20" fill="#dfdfdf" rx="10" ry="10" stroke="#929292" stroke-width="1"></rect><circle class="markmap-node-circle" cx="190.923828125" stroke="#929292" r="4.5" style="display: none;"></circle><text class="markmap-node-text" x="10" dy="3" text-anchor="start" style="fill-opacity: 1;">A Picture is Worth a Thousand Words</text></g><g class="markmap-node" transform="translate(345.1923828125,-203.75)"><rect class="markmap-node-rect" y="-10" x="-1" width="132.1865234375" height="20" fill="#dfdfdf" rx="10" ry="10" stroke="#929292" stroke-width="1"></rect><circle class="markmap-node-circle" cx="130.1865234375" stroke="#929292" r="4.5" style="display: none;"></circle><text class="markmap-node-text" x="10" dy="3" text-anchor="start" style="fill-opacity: 1;">reader do the reasoning</text></g><g class="markmap-node" transform="translate(345.1923828125,-228.75)"><rect class="markmap-node-rect" y="-10" x="-1" width="204.9794921875" height="20" fill="#dfdfdf" rx="10" ry="10" stroke="#929292" stroke-width="1"></rect><circle class="markmap-node-circle" cx="202.9794921875" stroke="#929292" r="4.5" style="display: none;"></circle><text class="markmap-node-text" x="10" dy="3" text-anchor="start" style="fill-opacity: 1;">indicate missing data but avoid distrac…</text></g><g class="markmap-node" transform="translate(345.1923828125,-253.75)"><rect class="markmap-node-rect" y="-10" x="-1" width="181.64453125" height="20" fill="#dfdfdf" rx="10" ry="10" stroke="#929292" stroke-width="1"></rect><circle class="markmap-node-circle" cx="179.64453125" stroke="#929292" r="4.5" style="display: none;"></circle><text class="markmap-node-text" x="10" dy="3" text-anchor="start" style="fill-opacity: 1;">avoid summaries and aggregations</text></g><g class="markmap-node" transform="translate(175.5771484375,-228.75)"><rect class="markmap-node-rect" y="-10" x="-1" width="111.615234375" height="20" fill="#dfdfdf" rx="10" ry="10" stroke="#929292" stroke-width="1"></rect><circle class="markmap-node-circle" cx="109.615234375" stroke="#929292" r="4.5"></circle><text class="markmap-node-text" x="10" dy="3" text-anchor="start" style="fill-opacity: 1;">Let the Data Speak</text></g><g class="markmap-node" transform="translate(0,0)"><rect class="markmap-node-rect" y="-10" x="-1" width="117.5771484375" height="20" fill="#dfdfdf" rx="10" ry="10" stroke="#929292" stroke-width="1"></rect><circle class="markmap-node-circle" cx="115.5771484375" stroke="#929292" r="4.5"></circle><text class="markmap-node-text" x="10" dy="3" text-anchor="start" style="fill-opacity: 1;">Tufte's Design Rules</text></g></g>
</svg>