<?xml version="1.0" standalone="no"?>
<!DOCTYPE svg PUBLIC "-//W3C//DTD SVG 1.1//EN"
  "http://www.w3.org/Graphics/SVG/1.1/DTD/svg11.dtd">
<svg xmlns="http://www.w3.org/2000/svg" version="1.1"
     width="824px" height="110px" viewBox="-15 -69 824 130">
  <defs>
    <style type="text/css"><![CDATA[
      .markmap-node {
        cursor: pointer;
      }

      .markmap-node-circle {
        fill: #fff;
        stroke-width: 1.5px;
      }

      .markmap-node-text {
        fill:  #000;
        font: 10px sans-serif;
      }

      .markmap-link {
        fill: none;
      }
    ]]></style>
  </defs>
  <g><path class="markmap-link" stroke="#929292" stroke-width="1" d="M545.0126953125,33.75C575.0126953125,33.75 575.0126953125,21.25 605.0126953125,21.25"></path><path class="markmap-link" stroke="#929292" stroke-width="1" d="M545.0126953125,33.75C575.0126953125,33.75 575.0126953125,46.25 605.0126953125,46.25"></path><path class="markmap-link" stroke="#929292" stroke-width="1" d="M639.5546875,-8.75C669.5546875,-8.75 669.5546875,-33.75 699.5546875,-33.75"></path><path class="markmap-link" stroke="#929292" stroke-width="1" d="M639.5546875,-8.75C669.5546875,-8.75 669.5546875,-8.75 699.5546875,-8.75"></path><path class="markmap-link" stroke="#929292" stroke-width="1" d="M639.5546875,-8.75C669.5546875,-8.75 669.5546875,16.25 699.5546875,16.25"></path><path class="markmap-link" stroke="#929292" stroke-width="1" d="M529.9931640625,-8.75C559.9931640625,-8.75 559.9931640625,-8.75 589.9931640625,-8.75"></path><path class="markmap-link" stroke="#929292" stroke-width="1" d="M375.96875,0C405.96875,0 405.96875,-33.75 435.96875,-33.75"></path><path class="markmap-link" stroke="#929292" stroke-width="1" d="M375.96875,0C405.96875,0 405.96875,-8.75 435.96875,-8.75"></path><path class="markmap-link" stroke="#929292" stroke-width="1" d="M375.96875,0C405.96875,0 405.96875,33.75 435.96875,33.75"></path><path class="markmap-link" stroke="#929292" stroke-width="1" d="M186.67578125,0C216.67578125,0 216.67578125,0 246.67578125,0"></path><g class="markmap-node" transform="translate(605.0126953125,46.25)"><rect class="markmap-node-rect" y="-10" x="-1" width="91.5908203125" height="20" fill="#dfdfdf" rx="10" ry="10" stroke="#929292" stroke-width="1"></rect><circle class="markmap-node-circle" cx="89.5908203125" stroke="#929292" r="4.5" style="display: none;"></circle><text class="markmap-node-text" x="10" dy="3" text-anchor="start" style="fill-opacity: 1;">Field Selection</text></g><g class="markmap-node" transform="translate(605.0126953125,21.25)"><rect class="markmap-node-rect" y="-10" x="-1" width="54.90625" height="20" fill="#dfdfdf" rx="10" ry="10" stroke="#929292" stroke-width="1"></rect><circle class="markmap-node-circle" cx="52.90625" stroke="#929292" r="4.5" style="display: none;"></circle><text class="markmap-node-text" x="10" dy="3" text-anchor="start" style="fill-opacity: 1;">Tooltip</text></g><g class="markmap-node" transform="translate(435.96875,33.75)"><rect class="markmap-node-rect" y="-10" x="-1" width="111.0439453125" height="20" fill="#dfdfdf" rx="10" ry="10" stroke="#929292" stroke-width="1"></rect><circle class="markmap-node-circle" cx="109.0439453125" stroke="#929292" r="4.5"></circle><text class="markmap-node-text" x="10" dy="3" text-anchor="start" style="fill-opacity: 1;">Details on Demand</text></g><g class="markmap-node" transform="translate(699.5546875,16.25)"><rect class="markmap-node-rect" y="-10" x="-1" width="96.595703125" height="20" fill="#dfdfdf" rx="10" ry="10" stroke="#929292" stroke-width="1"></rect><circle class="markmap-node-circle" cx="94.595703125" stroke="#929292" r="4.5" style="display: none;"></circle><text class="markmap-node-text" x="10" dy="3" text-anchor="start" style="fill-opacity: 1;">Interactive Lens</text></g><g class="markmap-node" transform="translate(699.5546875,-8.75)"><rect class="markmap-node-rect" y="-10" x="-1" width="81.5859375" height="20" fill="#dfdfdf" rx="10" ry="10" stroke="#929292" stroke-width="1"></rect><circle class="markmap-node-circle" cx="79.5859375" stroke="#929292" r="4.5" style="display: none;"></circle><text class="markmap-node-text" x="10" dy="3" text-anchor="start" style="fill-opacity: 1;">Expand Axis</text></g><g class="markmap-node" transform="translate(699.5546875,-33.75)"><rect class="markmap-node-rect" y="-10" x="-1" width="88.2607421875" height="20" fill="#dfdfdf" rx="10" ry="10" stroke="#929292" stroke-width="1"></rect><circle class="markmap-node-circle" cx="86.2607421875" stroke="#929292" r="4.5" style="display: none;"></circle><text class="markmap-node-text" x="10" dy="3" text-anchor="start" style="fill-opacity: 1;">Select Region</text></g><g class="markmap-node" transform="translate(589.9931640625,-8.75)"><rect class="markmap-node-rect" y="-10" x="-1" width="51.5615234375" height="20" fill="#dfdfdf" rx="10" ry="10" stroke="#929292" stroke-width="1"></rect><circle class="markmap-node-circle" cx="49.5615234375" stroke="#929292" r="4.5"></circle><text class="markmap-node-text" x="10" dy="3" text-anchor="start" style="fill-opacity: 1;">Zoom</text></g><g class="markmap-node" transform="translate(435.96875,-8.75)"><rect class="markmap-node-rect" y="-10" x="-1" width="96.0244140625" height="20" fill="#dfdfdf" rx="10" ry="10" stroke="#929292" stroke-width="1"></rect><circle class="markmap-node-circle" cx="94.0244140625" stroke="#929292" r="4.5"></circle><text class="markmap-node-text" x="10" dy="3" text-anchor="start" style="fill-opacity: 1;">Zoom and Filter</text></g><g class="markmap-node" transform="translate(435.96875,-33.75)"><rect class="markmap-node-rect" y="-10" x="-1" width="67.6748046875" height="20" fill="#dfdfdf" rx="10" ry="10" stroke="#929292" stroke-width="1"></rect><circle class="markmap-node-circle" cx="65.6748046875" stroke="#929292" r="4.5" style="display: none;"></circle><text class="markmap-node-text" x="10" dy="3" text-anchor="start" style="fill-opacity: 1;">Overview</text></g><g class="markmap-node" transform="translate(246.67578125,0)"><rect class="markmap-node-rect" y="-10" x="-1" width="131.29296875" height="20" fill="#dfdfdf" rx="10" ry="10" stroke="#929292" stroke-width="1"></rect><circle class="markmap-node-circle" cx="129.29296875" stroke="#929292" r="4.5"></circle><text class="markmap-node-text" x="10" dy="3" text-anchor="start" style="fill-opacity: 1;">Schneiderman's Mantra</text></g><g class="markmap-node" transform="translate(0,0)"><rect class="markmap-node-rect" y="-10" x="-1" width="188.67578125" height="20" fill="#dfdfdf" rx="10" ry="10" stroke="#929292" stroke-width="1"></rect><circle class="markmap-node-circle" cx="186.67578125" stroke="#929292" r="4.5"></circle><text class="markmap-node-text" x="10" dy="3" text-anchor="start" style="fill-opacity: 1;">The Information Visualization Mantra</text></g></g>
</svg>