<?xml version="1.0" standalone="no"?>
<!DOCTYPE svg PUBLIC "-//W3C//DTD SVG 1.1//EN"
  "http://www.w3.org/Graphics/SVG/1.1/DTD/svg11.dtd">
<svg xmlns="http://www.w3.org/2000/svg" version="1.1"
     width="892px" height="173px" viewBox="-15 -125 892 193">
  <defs>
    <style type="text/css"><![CDATA[
      .markmap-node {
        cursor: pointer;
      }

      .markmap-node-circle {
        fill: #fff;
        stroke-width: 1.5px;
      }

      .markmap-node-text {
        fill:  #000;
        font: 10px sans-serif;
      }

      .markmap-link {
        fill: none;
      }
    ]]></style>
  </defs>
  <g><path class="markmap-link" stroke="#929292" stroke-width="1" d="M582.083984375,40C612.083984375,40 612.083984375,27.5 642.083984375,27.5"></path><path class="markmap-link" stroke="#929292" stroke-width="1" d="M582.083984375,40C612.083984375,40 612.083984375,52.5 642.083984375,52.5"></path><path class="markmap-link" stroke="#929292" stroke-width="1" d="M424.71484375,40C454.71484375,40 454.71484375,40 484.71484375,40"></path><path class="markmap-link" stroke="#929292" stroke-width="1" d="M265.509765625,40C295.509765625,40 295.509765625,40 325.509765625,40"></path><path class="markmap-link" stroke="#929292" stroke-width="1" d="M236.2275390625,-40C266.2275390625,-40 266.2275390625,-90 296.2275390625,-90"></path><path class="markmap-link" stroke="#929292" stroke-width="1" d="M236.2275390625,-40C266.2275390625,-40 266.2275390625,-65 296.2275390625,-65"></path><path class="markmap-link" stroke="#929292" stroke-width="1" d="M236.2275390625,-40C266.2275390625,-40 266.2275390625,-40 296.2275390625,-40"></path><path class="markmap-link" stroke="#929292" stroke-width="1" d="M236.2275390625,-40C266.2275390625,-40 266.2275390625,-15 296.2275390625,-15"></path><path class="markmap-link" stroke="#929292" stroke-width="1" d="M236.2275390625,-40C266.2275390625,-40 266.2275390625,10 296.2275390625,10"></path><path class="markmap-link" stroke="#929292" stroke-width="1" d="M125.5478515625,0C155.5478515625,0 155.5478515625,-40 185.5478515625,-40"></path><path class="markmap-link" stroke="#929292" stroke-width="1" d="M125.5478515625,0C155.5478515625,0 155.5478515625,40 185.5478515625,40"></path><g class="markmap-node" transform="translate(642.083984375,52.5)"><rect class="markmap-node-rect" y="-10" x="-1" width="126.60546875" height="20" fill="#dfdfdf" rx="10" ry="10" stroke="#929292" stroke-width="1"></rect><circle class="markmap-node-circle" cx="124.60546875" stroke="#929292" r="4.5" style="display: none;"></circle><text class="markmap-node-text" x="10" dy="3" text-anchor="start" style="fill-opacity: 1;">Nesting: Combinations</text></g><g class="markmap-node" transform="translate(642.083984375,27.5)"><rect class="markmap-node-rect" y="-10" x="-1" width="222.0205078125" height="20" fill="#dfdfdf" rx="10" ry="10" stroke="#929292" stroke-width="1"></rect><circle class="markmap-node-circle" cx="220.0205078125" stroke="#929292" r="4.5" style="display: none;"></circle><text class="markmap-node-text" x="10" dy="3" text-anchor="start" style="fill-opacity: 1;">Concatenation: Different Dimensions Sam…</text></g><g class="markmap-node" transform="translate(484.71484375,40)"><rect class="markmap-node-rect" y="-10" x="-1" width="99.369140625" height="20" fill="#dfdfdf" rx="10" ry="10" stroke="#929292" stroke-width="1"></rect><circle class="markmap-node-circle" cx="97.369140625" stroke="#929292" r="4.5"></circle><text class="markmap-node-text" x="10" dy="3" text-anchor="start" style="fill-opacity: 1;">Organizing Axes</text></g><g class="markmap-node" transform="translate(325.509765625,40)"><rect class="markmap-node-rect" y="-10" x="-1" width="101.205078125" height="20" fill="#dfdfdf" rx="10" ry="10" stroke="#929292" stroke-width="1"></rect><circle class="markmap-node-circle" cx="99.205078125" stroke="#929292" r="4.5"></circle><text class="markmap-node-text" x="10" dy="3" text-anchor="start" style="fill-opacity: 1;">Worlds in Worlds</text></g><g class="markmap-node" transform="translate(185.5478515625,40)"><rect class="markmap-node-rect" y="-10" x="-1" width="81.9619140625" height="20" fill="#dfdfdf" rx="10" ry="10" stroke="#929292" stroke-width="1"></rect><circle class="markmap-node-circle" cx="79.9619140625" stroke="#929292" r="4.5"></circle><text class="markmap-node-text" x="10" dy="3" text-anchor="start" style="fill-opacity: 1;">Visualization</text></g><g class="markmap-node" transform="translate(296.2275390625,10)"><rect class="markmap-node-rect" y="-10" x="-1" width="119.37890625" height="20" fill="#dfdfdf" rx="10" ry="10" stroke="#929292" stroke-width="1"></rect><circle class="markmap-node-circle" cx="117.37890625" stroke="#929292" r="4.5" style="display: none;"></circle><text class="markmap-node-text" x="10" dy="3" text-anchor="start" style="fill-opacity: 1;">Pivot: Field Selection</text></g><g class="markmap-node" transform="translate(296.2275390625,-15)"><rect class="markmap-node-rect" y="-10" x="-1" width="214.9404296875" height="20" fill="#dfdfdf" rx="10" ry="10" stroke="#929292" stroke-width="1"></rect><circle class="markmap-node-circle" cx="212.9404296875" stroke="#929292" r="4.5" style="display: none;"></circle><text class="markmap-node-text" x="10" dy="3" text-anchor="start" style="fill-opacity: 1;">Drill-down: Zoom Fields, Details on Dem…</text></g><g class="markmap-node" transform="translate(296.2275390625,-40)"><rect class="markmap-node-rect" y="-10" x="-1" width="117.1669921875" height="20" fill="#dfdfdf" rx="10" ry="10" stroke="#929292" stroke-width="1"></rect><circle class="markmap-node-circle" cx="115.1669921875" stroke="#929292" r="4.5" style="display: none;"></circle><text class="markmap-node-text" x="10" dy="3" text-anchor="start" style="fill-opacity: 1;">Roll-up: Aggregation</text></g><g class="markmap-node" transform="translate(296.2275390625,-65)"><rect class="markmap-node-rect" y="-10" x="-1" width="149.9306640625" height="20" fill="#dfdfdf" rx="10" ry="10" stroke="#929292" stroke-width="1"></rect><circle class="markmap-node-circle" cx="147.9306640625" stroke="#929292" r="4.5" style="display: none;"></circle><text class="markmap-node-text" x="10" dy="3" text-anchor="start" style="fill-opacity: 1;">Dicing: Zoom, Filter Ranges</text></g><g class="markmap-node" transform="translate(296.2275390625,-90)"><rect class="markmap-node-rect" y="-10" x="-1" width="115.8486328125" height="20" fill="#dfdfdf" rx="10" ry="10" stroke="#929292" stroke-width="1"></rect><circle class="markmap-node-circle" cx="113.8486328125" stroke="#929292" r="4.5" style="display: none;"></circle><text class="markmap-node-text" x="10" dy="3" text-anchor="start" style="fill-opacity: 1;">Slicing: Filter Values</text></g><g class="markmap-node" transform="translate(185.5478515625,-40)"><rect class="markmap-node-rect" y="-10" x="-1" width="52.6796875" height="20" fill="#dfdfdf" rx="10" ry="10" stroke="#929292" stroke-width="1"></rect><circle class="markmap-node-circle" cx="50.6796875" stroke="#929292" r="4.5"></circle><text class="markmap-node-text" x="10" dy="3" text-anchor="start" style="fill-opacity: 1;">OLAP</text></g><g class="markmap-node" transform="translate(0,0)"><rect class="markmap-node-rect" y="-10" x="-1" width="127.5478515625" height="20" fill="#dfdfdf" rx="10" ry="10" stroke="#929292" stroke-width="1"></rect><circle class="markmap-node-circle" cx="125.5478515625" stroke="#929292" r="4.5"></circle><text class="markmap-node-text" x="10" dy="3" text-anchor="start" style="fill-opacity: 1;">Database Visualization</text></g></g>
</svg>