<?xml version="1.0" standalone="no"?>
<!DOCTYPE svg PUBLIC "-//W3C//DTD SVG 1.1//EN"
  "http://www.w3.org/Graphics/SVG/1.1/DTD/svg11.dtd">
<svg xmlns="http://www.w3.org/2000/svg" version="1.1"
     width="635px" height="210px" viewBox="-15 -137 635 230">
  <defs>
    <style type="text/css"><![CDATA[
      .markmap-node {
        cursor: pointer;
      }

      .markmap-node-circle {
        fill: #fff;
        stroke-width: 1.5px;
      }

      .markmap-node-text {
        fill:  #000;
        font: 10px sans-serif;
      }

      .markmap-link {
        fill: none;
      }
    ]]></style>
  </defs>
  <g><path class="markmap-link" stroke="#929292" stroke-width="1" d="M334.572265625,40C364.572265625,40 364.572265625,2.5 394.572265625,2.5"></path><path class="markmap-link" stroke="#929292" stroke-width="1" d="M334.572265625,40C364.572265625,40 364.572265625,27.5 394.572265625,27.5"></path><path class="markmap-link" stroke="#929292" stroke-width="1" d="M334.572265625,40C364.572265625,40 364.572265625,52.5 394.572265625,52.5"></path><path class="markmap-link" stroke="#929292" stroke-width="1" d="M334.572265625,40C364.572265625,40 364.572265625,77.5 394.572265625,77.5"></path><path class="markmap-link" stroke="#929292" stroke-width="1" d="M301.232421875,-65C331.232421875,-65 331.232421875,-102.5 361.232421875,-102.5"></path><path class="markmap-link" stroke="#929292" stroke-width="1" d="M301.232421875,-65C331.232421875,-65 331.232421875,-77.5 361.232421875,-77.5"></path><path class="markmap-link" stroke="#929292" stroke-width="1" d="M301.232421875,-65C331.232421875,-65 331.232421875,-52.5 361.232421875,-52.5"></path><path class="markmap-link" stroke="#929292" stroke-width="1" d="M301.232421875,-65C331.232421875,-65 331.232421875,-27.5 361.232421875,-27.5"></path><path class="markmap-link" stroke="#929292" stroke-width="1" d="M149.986328125,0C179.986328125,0 179.986328125,-65 209.986328125,-65"></path><path class="markmap-link" stroke="#929292" stroke-width="1" d="M149.986328125,0C179.986328125,0 179.986328125,40 209.986328125,40"></path><path class="markmap-link" stroke="#929292" stroke-width="1" d="M149.986328125,0C179.986328125,0 179.986328125,65 209.986328125,65"></path><g class="markmap-node" transform="translate(209.986328125,65)"><rect class="markmap-node-rect" y="-10" x="-1" width="86.576171875" height="20" fill="#dfdfdf" rx="10" ry="10" stroke="#929292" stroke-width="1"></rect><circle class="markmap-node-circle" cx="84.576171875" stroke="#929292" r="4.5" style="display: none;"></circle><text class="markmap-node-text" x="10" dy="3" text-anchor="start" style="fill-opacity: 1;">Task Analysis</text></g><g class="markmap-node" transform="translate(394.572265625,77.5)"><rect class="markmap-node-rect" y="-10" x="-1" width="212.2060546875" height="20" fill="#dfdfdf" rx="10" ry="10" stroke="#929292" stroke-width="1"></rect><circle class="markmap-node-circle" cx="210.2060546875" stroke="#929292" r="4.5" style="display: none;"></circle><text class="markmap-node-text" x="10" dy="3" text-anchor="start" style="fill-opacity: 1;">Selection: users have preferences over …</text></g><g class="markmap-node" transform="translate(394.572265625,52.5)"><rect class="markmap-node-rect" y="-10" x="-1" width="174.4228515625" height="20" fill="#dfdfdf" rx="10" ry="10" stroke="#929292" stroke-width="1"></rect><circle class="markmap-node-circle" cx="172.4228515625" stroke="#929292" r="4.5" style="display: none;"></circle><text class="markmap-node-text" x="10" dy="3" text-anchor="start" style="fill-opacity: 1;">Methods: sequences of operators</text></g><g class="markmap-node" transform="translate(394.572265625,27.5)"><rect class="markmap-node-rect" y="-10" x="-1" width="70.462890625" height="20" fill="#dfdfdf" rx="10" ry="10" stroke="#929292" stroke-width="1"></rect><circle class="markmap-node-circle" cx="68.462890625" stroke="#929292" r="4.5" style="display: none;"></circle><text class="markmap-node-text" x="10" dy="3" text-anchor="start" style="fill-opacity: 1;">Operators</text></g><g class="markmap-node" transform="translate(394.572265625,2.5)"><rect class="markmap-node-rect" y="-10" x="-1" width="52.123046875" height="20" fill="#dfdfdf" rx="10" ry="10" stroke="#929292" stroke-width="1"></rect><circle class="markmap-node-circle" cx="50.123046875" stroke="#929292" r="4.5" style="display: none;"></circle><text class="markmap-node-text" x="10" dy="3" text-anchor="start" style="fill-opacity: 1;">Goals</text></g><g class="markmap-node" transform="translate(209.986328125,40)"><rect class="markmap-node-rect" y="-10" x="-1" width="126.5859375" height="20" fill="#dfdfdf" rx="10" ry="10" stroke="#929292" stroke-width="1"></rect><circle class="markmap-node-circle" cx="124.5859375" stroke="#929292" r="4.5"></circle><text class="markmap-node-text" x="10" dy="3" text-anchor="start" style="fill-opacity: 1;">User Modeling: GOMS</text></g><g class="markmap-node" transform="translate(361.232421875,-27.5)"><rect class="markmap-node-rect" y="-10" x="-1" width="94.369140625" height="20" fill="#dfdfdf" rx="10" ry="10" stroke="#929292" stroke-width="1"></rect><circle class="markmap-node-circle" cx="92.369140625" stroke="#929292" r="4.5" style="display: none;"></circle><text class="markmap-node-text" x="10" dy="3" text-anchor="start" style="fill-opacity: 1;">Implementation</text></g><g class="markmap-node" transform="translate(361.232421875,-52.5)"><rect class="markmap-node-rect" y="-10" x="-1" width="109.9453125" height="20" fill="#dfdfdf" rx="10" ry="10" stroke="#929292" stroke-width="1"></rect><circle class="markmap-node-circle" cx="107.9453125" stroke="#929292" r="4.5" style="display: none;"></circle><text class="markmap-node-text" x="10" dy="3" text-anchor="start" style="fill-opacity: 1;">Component design</text></g><g class="markmap-node" transform="translate(361.232421875,-77.5)"><rect class="markmap-node-rect" y="-10" x="-1" width="192.7578125" height="20" fill="#dfdfdf" rx="10" ry="10" stroke="#929292" stroke-width="1"></rect><circle class="markmap-node-circle" cx="190.7578125" stroke="#929292" r="4.5" style="display: none;"></circle><text class="markmap-node-text" x="10" dy="3" text-anchor="start" style="fill-opacity: 1;">Architectural design: into components</text></g><g class="markmap-node" transform="translate(361.232421875,-102.5)"><rect class="markmap-node-rect" y="-10" x="-1" width="146.05859375" height="20" fill="#dfdfdf" rx="10" ry="10" stroke="#929292" stroke-width="1"></rect><circle class="markmap-node-circle" cx="144.05859375" stroke="#929292" r="4.5" style="display: none;"></circle><text class="markmap-node-text" x="10" dy="3" text-anchor="start" style="fill-opacity: 1;">Requirements specification</text></g><g class="markmap-node" transform="translate(209.986328125,-65)"><rect class="markmap-node-rect" y="-10" x="-1" width="93.24609375" height="20" fill="#dfdfdf" rx="10" ry="10" stroke="#929292" stroke-width="1"></rect><circle class="markmap-node-circle" cx="91.24609375" stroke="#929292" r="4.5"></circle><text class="markmap-node-text" x="10" dy="3" text-anchor="start" style="fill-opacity: 1;">System Design</text></g><g class="markmap-node" transform="translate(0,0)"><rect class="markmap-node-rect" y="-10" x="-1" width="151.986328125" height="20" fill="#dfdfdf" rx="10" ry="10" stroke="#929292" stroke-width="1"></rect><circle class="markmap-node-circle" cx="149.986328125" stroke="#929292" r="4.5"></circle><text class="markmap-node-text" x="10" dy="3" text-anchor="start" style="fill-opacity: 1;">Visualization System Design</text></g></g>
</svg>