<?xml version="1.0" standalone="no"?>
<!DOCTYPE svg PUBLIC "-//W3C//DTD SVG 1.1//EN"
  "http://www.w3.org/Graphics/SVG/1.1/DTD/svg11.dtd">
<svg xmlns="http://www.w3.org/2000/svg" version="1.1"
     width="682px" height="255px" viewBox="-15 -147 682 275">
  <defs>
    <style type="text/css"><![CDATA[
      .markmap-node {
        cursor: pointer;
      }

      .markmap-node-circle {
        fill: #fff;
        stroke-width: 1.5px;
      }

      .markmap-node-text {
        fill:  #000;
        font: 10px sans-serif;
      }

      .markmap-link {
        fill: none;
      }
    ]]></style>
  </defs>
  <g><path class="markmap-link" stroke="#929292" stroke-width="1" d="M291.7744140625,82.5C321.7744140625,82.5 321.7744140625,82.5 351.7744140625,82.5"></path><path class="markmap-link" stroke="#929292" stroke-width="1" d="M253.4443359375,27.5C283.4443359375,27.5 283.4443359375,27.5 313.4443359375,27.5"></path><path class="markmap-link" stroke="#929292" stroke-width="1" d="M500.8427734375,-57.5C530.8427734375,-57.5 530.8427734375,-57.5 560.8427734375,-57.5"></path><path class="markmap-link" stroke="#929292" stroke-width="1" d="M244.552734375,-42.5C274.552734375,-42.5 274.552734375,-82.5 304.552734375,-82.5"></path><path class="markmap-link" stroke="#929292" stroke-width="1" d="M244.552734375,-42.5C274.552734375,-42.5 274.552734375,-57.5 304.552734375,-57.5"></path><path class="markmap-link" stroke="#929292" stroke-width="1" d="M244.552734375,-42.5C274.552734375,-42.5 274.552734375,-27.5 304.552734375,-27.5"></path><path class="markmap-link" stroke="#929292" stroke-width="1" d="M244.552734375,-42.5C274.552734375,-42.5 274.552734375,-2.5 304.552734375,-2.5"></path><path class="markmap-link" stroke="#929292" stroke-width="1" d="M110.533203125,0C140.533203125,0 140.533203125,-112.5 170.533203125,-112.5"></path><path class="markmap-link" stroke="#929292" stroke-width="1" d="M110.533203125,0C140.533203125,0 140.533203125,-42.5 170.533203125,-42.5"></path><path class="markmap-link" stroke="#929292" stroke-width="1" d="M110.533203125,0C140.533203125,0 140.533203125,27.5 170.533203125,27.5"></path><path class="markmap-link" stroke="#929292" stroke-width="1" d="M110.533203125,0C140.533203125,0 140.533203125,57.5 170.533203125,57.5"></path><path class="markmap-link" stroke="#929292" stroke-width="1" d="M110.533203125,0C140.533203125,0 140.533203125,82.5 170.533203125,82.5"></path><path class="markmap-link" stroke="#929292" stroke-width="1" d="M110.533203125,0C140.533203125,0 140.533203125,112.5 170.533203125,112.5"></path><g class="markmap-node" transform="translate(170.533203125,112.5)"><rect class="markmap-node-rect" y="-10" x="-1" width="144.3984375" height="20" fill="#dfdfdf" rx="10" ry="10" stroke="#929292" stroke-width="1"></rect><circle class="markmap-node-circle" cx="142.3984375" stroke="#929292" r="4.5" style="display: none;"></circle><text class="markmap-node-text" x="10" dy="3" text-anchor="start" style="fill-opacity: 1;">Edge Bundle Communities</text></g><g class="markmap-node" transform="translate(351.7744140625,82.5)"><rect class="markmap-node-rect" y="-10" x="-1" width="218.32421875" height="20" fill="#dfdfdf" rx="10" ry="10" stroke="#929292" stroke-width="1"></rect><circle class="markmap-node-circle" cx="216.32421875" stroke="#929292" r="4.5" style="display: none;"></circle><text class="markmap-node-text" x="10" dy="3" text-anchor="start" style="fill-opacity: 1;">Removing Edges in order of decreasing BC</text></g><g class="markmap-node" transform="translate(170.533203125,82.5)"><rect class="markmap-node-rect" y="-10" x="-1" width="123.2412109375" height="20" fill="#dfdfdf" rx="10" ry="10" stroke="#929292" stroke-width="1"></rect><circle class="markmap-node-circle" cx="121.2412109375" stroke="#929292" r="4.5"></circle><text class="markmap-node-text" x="10" dy="3" text-anchor="start" style="fill-opacity: 1;">Community Discovery</text></g><g class="markmap-node" transform="translate(170.533203125,57.5)"><rect class="markmap-node-rect" y="-10" x="-1" width="88.2705078125" height="20" fill="#dfdfdf" rx="10" ry="10" stroke="#929292" stroke-width="1"></rect><circle class="markmap-node-circle" cx="86.2705078125" stroke="#929292" r="4.5" style="display: none;"></circle><text class="markmap-node-text" x="10" dy="3" text-anchor="start" style="fill-opacity: 1;">Edge Bundles</text></g><g class="markmap-node" transform="translate(313.4443359375,27.5)"><rect class="markmap-node-rect" y="-10" x="-1" width="70.4775390625" height="20" fill="#dfdfdf" rx="10" ry="10" stroke="#929292" stroke-width="1"></rect><circle class="markmap-node-circle" cx="68.4775390625" stroke="#929292" r="4.5" style="display: none;"></circle><text class="markmap-node-text" x="10" dy="3" text-anchor="start" style="fill-opacity: 1;">Backbone</text></g><g class="markmap-node" transform="translate(170.533203125,27.5)"><rect class="markmap-node-rect" y="-10" x="-1" width="84.9111328125" height="20" fill="#dfdfdf" rx="10" ry="10" stroke="#929292" stroke-width="1"></rect><circle class="markmap-node-circle" cx="82.9111328125" stroke="#929292" r="4.5"></circle><text class="markmap-node-text" x="10" dy="3" text-anchor="start" style="fill-opacity: 1;">Simplification</text></g><g class="markmap-node" transform="translate(304.552734375,-2.5)"><rect class="markmap-node-rect" y="-10" x="-1" width="144.9404296875" height="20" fill="#dfdfdf" rx="10" ry="10" stroke="#929292" stroke-width="1"></rect><circle class="markmap-node-circle" cx="142.9404296875" stroke="#929292" r="4.5" style="display: none;"></circle><text class="markmap-node-text" x="10" dy="3" text-anchor="start" style="fill-opacity: 1;">Betweeness Centrality: BC</text></g><g class="markmap-node" transform="translate(304.552734375,-27.5)"><rect class="markmap-node-rect" y="-10" x="-1" width="204.41796875" height="20" fill="#dfdfdf" rx="10" ry="10" stroke="#929292" stroke-width="1"></rect><circle class="markmap-node-circle" cx="202.41796875" stroke="#929292" r="4.5" style="display: none;"></circle><text class="markmap-node-text" x="10" dy="3" text-anchor="start" style="fill-opacity: 1;">Graph Centrality: 1/distance to farthes…</text></g><g class="markmap-node" transform="translate(560.8427734375,-57.5)"><rect class="markmap-node-rect" y="-10" x="-1" width="93.24609375" height="20" fill="#dfdfdf" rx="10" ry="10" stroke="#929292" stroke-width="1"></rect><circle class="markmap-node-circle" cx="91.24609375" stroke="#929292" r="4.5" style="display: none;"></circle><text class="markmap-node-text" x="10" dy="3" text-anchor="start" style="fill-opacity: 1;">Isolation metric</text></g><g class="markmap-node" transform="translate(304.552734375,-57.5)"><rect class="markmap-node-rect" y="-10" x="-1" width="198.2900390625" height="20" fill="#dfdfdf" rx="10" ry="10" stroke="#929292" stroke-width="1"></rect><circle class="markmap-node-circle" cx="196.2900390625" stroke="#929292" r="4.5"></circle><text class="markmap-node-text" x="10" dy="3" text-anchor="start" style="fill-opacity: 1;">Closeness Centrality: 1/isolation metric</text></g><g class="markmap-node" transform="translate(304.552734375,-82.5)"><rect class="markmap-node-rect" y="-10" x="-1" width="90.482421875" height="20" fill="#dfdfdf" rx="10" ry="10" stroke="#929292" stroke-width="1"></rect><circle class="markmap-node-circle" cx="88.482421875" stroke="#929292" r="4.5" style="display: none;"></circle><text class="markmap-node-text" x="10" dy="3" text-anchor="start" style="fill-opacity: 1;">Node Degrees</text></g><g class="markmap-node" transform="translate(170.533203125,-42.5)"><rect class="markmap-node-rect" y="-10" x="-1" width="76.01953125" height="20" fill="#dfdfdf" rx="10" ry="10" stroke="#929292" stroke-width="1"></rect><circle class="markmap-node-circle" cx="74.01953125" stroke="#929292" r="4.5"></circle><text class="markmap-node-text" x="10" dy="3" text-anchor="start" style="fill-opacity: 1;">Centralities</text></g><g class="markmap-node" transform="translate(170.533203125,-112.5)"><rect class="markmap-node-rect" y="-10" x="-1" width="141.60546875" height="20" fill="#dfdfdf" rx="10" ry="10" stroke="#929292" stroke-width="1"></rect><circle class="markmap-node-circle" cx="139.60546875" stroke="#929292" r="4.5" style="display: none;"></circle><text class="markmap-node-text" x="10" dy="3" text-anchor="start" style="fill-opacity: 1;">GEM force directed layout</text></g><g class="markmap-node" transform="translate(0,0)"><rect class="markmap-node-rect" y="-10" x="-1" width="112.533203125" height="20" fill="#dfdfdf" rx="10" ry="10" stroke="#929292" stroke-width="1"></rect><circle class="markmap-node-circle" cx="110.533203125" stroke="#929292" r="4.5"></circle><text class="markmap-node-text" x="10" dy="3" text-anchor="start" style="fill-opacity: 1;">Graph Visualization</text></g></g>
</svg>