<?xml version="1.0" standalone="no"?>
<!DOCTYPE svg PUBLIC "-//W3C//DTD SVG 1.1//EN"
  "http://www.w3.org/Graphics/SVG/1.1/DTD/svg11.dtd">
<svg xmlns="http://www.w3.org/2000/svg" version="1.1"
     width="687px" height="342px" viewBox="-15 -197 687 362">
  <defs>
    <style type="text/css"><![CDATA[
      .markmap-node {
        cursor: pointer;
      }

      .markmap-node-circle {
        fill: #fff;
        stroke-width: 1.5px;
      }

      .markmap-node-text {
        fill:  #000;
        font: 10px sans-serif;
      }

      .markmap-link {
        fill: none;
      }
    ]]></style>
  </defs>
  <g><path class="markmap-link" stroke="#929292" stroke-width="1" d="M393.19140625,120C423.19140625,120 423.19140625,107.5 453.19140625,107.5"></path><path class="markmap-link" stroke="#929292" stroke-width="1" d="M393.19140625,120C423.19140625,120 423.19140625,132.5 453.19140625,132.5"></path><path class="markmap-link" stroke="#929292" stroke-width="1" d="M385.984375,65C415.984375,65 415.984375,52.5 445.984375,52.5"></path><path class="markmap-link" stroke="#929292" stroke-width="1" d="M385.984375,65C415.984375,65 415.984375,77.5 445.984375,77.5"></path><path class="markmap-link" stroke="#929292" stroke-width="1" d="M348.181640625,-15C378.181640625,-15 378.181640625,-52.5 408.181640625,-52.5"></path><path class="markmap-link" stroke="#929292" stroke-width="1" d="M348.181640625,-15C378.181640625,-15 378.181640625,-27.5 408.181640625,-27.5"></path><path class="markmap-link" stroke="#929292" stroke-width="1" d="M348.181640625,-15C378.181640625,-15 378.181640625,-2.5 408.181640625,-2.5"></path><path class="markmap-link" stroke="#929292" stroke-width="1" d="M348.181640625,-15C378.181640625,-15 378.181640625,22.5 408.181640625,22.5"></path><path class="markmap-link" stroke="#929292" stroke-width="1" d="M363.1865234375,-150C393.1865234375,-150 393.1865234375,-162.5 423.1865234375,-162.5"></path><path class="markmap-link" stroke="#929292" stroke-width="1" d="M363.1865234375,-150C393.1865234375,-150 393.1865234375,-137.5 423.1865234375,-137.5"></path><path class="markmap-link" stroke="#929292" stroke-width="1" d="M237.501953125,0C267.501953125,0 267.501953125,-150 297.501953125,-150"></path><path class="markmap-link" stroke="#929292" stroke-width="1" d="M237.501953125,0C267.501953125,0 267.501953125,-107.5 297.501953125,-107.5"></path><path class="markmap-link" stroke="#929292" stroke-width="1" d="M237.501953125,0C267.501953125,0 267.501953125,-82.5 297.501953125,-82.5"></path><path class="markmap-link" stroke="#929292" stroke-width="1" d="M237.501953125,0C267.501953125,0 267.501953125,-15 297.501953125,-15"></path><path class="markmap-link" stroke="#929292" stroke-width="1" d="M237.501953125,0C267.501953125,0 267.501953125,65 297.501953125,65"></path><path class="markmap-link" stroke="#929292" stroke-width="1" d="M237.501953125,0C267.501953125,0 267.501953125,120 297.501953125,120"></path><path class="markmap-link" stroke="#929292" stroke-width="1" d="M237.501953125,0C267.501953125,0 267.501953125,150 297.501953125,150"></path><path class="markmap-link" stroke="#929292" stroke-width="1" d="M120.708984375,0C150.708984375,0 150.708984375,0 180.708984375,0"></path><g class="markmap-node" transform="translate(297.501953125,150)"><rect class="markmap-node-rect" y="-10" x="-1" width="102.1376953125" height="20" fill="#dfdfdf" rx="10" ry="10" stroke="#929292" stroke-width="1"></rect><circle class="markmap-node-circle" cx="100.1376953125" stroke="#929292" r="4.5" style="display: none;"></circle><text class="markmap-node-text" x="10" dy="3" text-anchor="start" style="fill-opacity: 1;">Adjacency Matrix</text></g><g class="markmap-node" transform="translate(453.19140625,132.5)"><rect class="markmap-node-rect" y="-10" x="-1" width="205.521484375" height="20" fill="#dfdfdf" rx="10" ry="10" stroke="#929292" stroke-width="1"></rect><circle class="markmap-node-circle" cx="203.521484375" stroke="#929292" r="4.5" style="display: none;"></circle><text class="markmap-node-text" x="10" dy="3" text-anchor="start" style="fill-opacity: 1;">Logrithmic, power-law, scale-free graphs</text></g><g class="markmap-node" transform="translate(453.19140625,107.5)"><rect class="markmap-node-rect" y="-10" x="-1" width="132.1767578125" height="20" fill="#dfdfdf" rx="10" ry="10" stroke="#929292" stroke-width="1"></rect><circle class="markmap-node-circle" cx="130.1767578125" stroke="#929292" r="4.5" style="display: none;"></circle><text class="markmap-node-text" x="10" dy="3" text-anchor="start" style="fill-opacity: 1;">Many low degree nodes</text></g><g class="markmap-node" transform="translate(297.501953125,120)"><rect class="markmap-node-rect" y="-10" x="-1" width="97.689453125" height="20" fill="#dfdfdf" rx="10" ry="10" stroke="#929292" stroke-width="1"></rect><circle class="markmap-node-circle" cx="95.689453125" stroke="#929292" r="4.5"></circle><text class="markmap-node-text" x="10" dy="3" text-anchor="start" style="fill-opacity: 1;">Social Networks</text></g><g class="markmap-node" transform="translate(445.984375,77.5)"><rect class="markmap-node-rect" y="-10" x="-1" width="76.5859375" height="20" fill="#dfdfdf" rx="10" ry="10" stroke="#929292" stroke-width="1"></rect><circle class="markmap-node-circle" cx="74.5859375" stroke="#929292" r="4.5" style="display: none;"></circle><text class="markmap-node-text" x="10" dy="3" text-anchor="start" style="fill-opacity: 1;">Out-degree</text></g><g class="markmap-node" transform="translate(445.984375,52.5)"><rect class="markmap-node-rect" y="-10" x="-1" width="68.8076171875" height="20" fill="#dfdfdf" rx="10" ry="10" stroke="#929292" stroke-width="1"></rect><circle class="markmap-node-circle" cx="66.8076171875" stroke="#929292" r="4.5" style="display: none;"></circle><text class="markmap-node-text" x="10" dy="3" text-anchor="start" style="fill-opacity: 1;">In-degree</text></g><g class="markmap-node" transform="translate(297.501953125,65)"><rect class="markmap-node-rect" y="-10" x="-1" width="90.482421875" height="20" fill="#dfdfdf" rx="10" ry="10" stroke="#929292" stroke-width="1"></rect><circle class="markmap-node-circle" cx="88.482421875" stroke="#929292" r="4.5"></circle><text class="markmap-node-text" x="10" dy="3" text-anchor="start" style="fill-opacity: 1;">Node Degrees</text></g><g class="markmap-node" transform="translate(408.181640625,22.5)"><rect class="markmap-node-rect" y="-10" x="-1" width="46.1904296875" height="20" fill="#dfdfdf" rx="10" ry="10" stroke="#929292" stroke-width="1"></rect><circle class="markmap-node-circle" cx="44.1904296875" stroke="#929292" r="4.5" style="display: none;"></circle><text class="markmap-node-text" x="10" dy="3" text-anchor="start" style="fill-opacity: 1;">Tree</text></g><g class="markmap-node" transform="translate(408.181640625,-2.5)"><rect class="markmap-node-rect" y="-10" x="-1" width="104.9111328125" height="20" fill="#dfdfdf" rx="10" ry="10" stroke="#929292" stroke-width="1"></rect><circle class="markmap-node-circle" cx="102.9111328125" stroke="#929292" r="4.5" style="display: none;"></circle><text class="markmap-node-text" x="10" dy="3" text-anchor="start" style="fill-opacity: 1;">Cyclic and acyclic</text></g><g class="markmap-node" transform="translate(408.181640625,-27.5)"><rect class="markmap-node-rect" y="-10" x="-1" width="68.7880859375" height="20" fill="#dfdfdf" rx="10" ry="10" stroke="#929292" stroke-width="1"></rect><circle class="markmap-node-circle" cx="66.7880859375" stroke="#929292" r="4.5" style="display: none;"></circle><text class="markmap-node-text" x="10" dy="3" text-anchor="start" style="fill-opacity: 1;">Hierarchy</text></g><g class="markmap-node" transform="translate(408.181640625,-52.5)"><rect class="markmap-node-rect" y="-10" x="-1" width="133.8369140625" height="20" fill="#dfdfdf" rx="10" ry="10" stroke="#929292" stroke-width="1"></rect><circle class="markmap-node-circle" cx="131.8369140625" stroke="#929292" r="4.5" style="display: none;"></circle><text class="markmap-node-text" x="10" dy="3" text-anchor="start" style="fill-opacity: 1;">Directed and Undirected</text></g><g class="markmap-node" transform="translate(297.501953125,-15)"><rect class="markmap-node-rect" y="-10" x="-1" width="52.6796875" height="20" fill="#dfdfdf" rx="10" ry="10" stroke="#929292" stroke-width="1"></rect><circle class="markmap-node-circle" cx="50.6796875" stroke="#929292" r="4.5"></circle><text class="markmap-node-text" x="10" dy="3" text-anchor="start" style="fill-opacity: 1;">Types</text></g><g class="markmap-node" transform="translate(297.501953125,-82.5)"><rect class="markmap-node-rect" y="-10" x="-1" width="195.53125" height="20" fill="#dfdfdf" rx="10" ry="10" stroke="#929292" stroke-width="1"></rect><circle class="markmap-node-circle" cx="193.53125" stroke="#929292" r="4.5" style="display: none;"></circle><text class="markmap-node-text" x="10" dy="3" text-anchor="start" style="fill-opacity: 1;">isomorphic, embedings of same graph</text></g><g class="markmap-node" transform="translate(297.501953125,-107.5)"><rect class="markmap-node-rect" y="-10" x="-1" width="217.77734375" height="20" fill="#dfdfdf" rx="10" ry="10" stroke="#929292" stroke-width="1"></rect><circle class="markmap-node-circle" cx="215.77734375" stroke="#929292" r="4.5" style="display: none;"></circle><text class="markmap-node-text" x="10" dy="3" text-anchor="start" style="fill-opacity: 1;">Planar Graph: edges not crossing each o…</text></g><g class="markmap-node" transform="translate(423.1865234375,-137.5)"><rect class="markmap-node-rect" y="-10" x="-1" width="49.90625" height="20" fill="#dfdfdf" rx="10" ry="10" stroke="#929292" stroke-width="1"></rect><circle class="markmap-node-circle" cx="47.90625" stroke="#929292" r="4.5" style="display: none;"></circle><text class="markmap-node-text" x="10" dy="3" text-anchor="start" style="fill-opacity: 1;">Node</text></g><g class="markmap-node" transform="translate(423.1865234375,-162.5)"><rect class="markmap-node-rect" y="-10" x="-1" width="49.3544921875" height="20" fill="#dfdfdf" rx="10" ry="10" stroke="#929292" stroke-width="1"></rect><circle class="markmap-node-circle" cx="47.3544921875" stroke="#929292" r="4.5" style="display: none;"></circle><text class="markmap-node-text" x="10" dy="3" text-anchor="start" style="fill-opacity: 1;">Edge</text></g><g class="markmap-node" transform="translate(297.501953125,-150)"><rect class="markmap-node-rect" y="-10" x="-1" width="67.6845703125" height="20" fill="#dfdfdf" rx="10" ry="10" stroke="#929292" stroke-width="1"></rect><circle class="markmap-node-circle" cx="65.6845703125" stroke="#929292" r="4.5"></circle><text class="markmap-node-text" x="10" dy="3" text-anchor="start" style="fill-opacity: 1;">Elements</text></g><g class="markmap-node" transform="translate(180.708984375,0)"><rect class="markmap-node-rect" y="-10" x="-1" width="58.79296875" height="20" fill="#dfdfdf" rx="10" ry="10" stroke="#929292" stroke-width="1"></rect><circle class="markmap-node-circle" cx="56.79296875" stroke="#929292" r="4.5"></circle><text class="markmap-node-text" x="10" dy="3" text-anchor="start" style="fill-opacity: 1;">Graphs</text></g><g class="markmap-node" transform="translate(0,0)"><rect class="markmap-node-rect" y="-10" x="-1" width="122.708984375" height="20" fill="#dfdfdf" rx="10" ry="10" stroke="#929292" stroke-width="1"></rect><circle class="markmap-node-circle" cx="120.708984375" stroke="#929292" r="4.5"></circle><text class="markmap-node-text" x="10" dy="3" text-anchor="start" style="fill-opacity: 1;">Graphs and Networks</text></g></g>
</svg>